<svg width="232" height="20" viewBox="0 0 232 20" fill="none" xmlns="http://www.w3.org/2000/svg">
<path d="M231.469 4.44141C231.417 4.61068 231.332 4.76693 231.215 4.91016L230.883 5.32031C230.779 5.45052 230.688 5.59375 230.609 5.75C230.544 5.89323 230.525 6.0625 230.551 6.25781C230.525 6.25781 230.492 6.25781 230.453 6.25781C230.414 6.24479 230.382 6.23828 230.355 6.23828C230.147 6.23828 229.984 6.29036 229.867 6.39453C229.763 6.48568 229.62 6.5638 229.438 6.62891C229.411 6.55078 229.379 6.47917 229.34 6.41406C229.301 6.33594 229.242 6.28385 229.164 6.25781C228.852 6.32292 228.539 6.375 228.227 6.41406C227.914 6.4401 227.602 6.47917 227.289 6.53125C227.146 6.55729 227.003 6.59635 226.859 6.64844C226.716 6.6875 226.566 6.72656 226.41 6.76562C226.332 6.79167 226.247 6.80469 226.156 6.80469C226.065 6.79167 225.974 6.79167 225.883 6.80469C225.57 6.81771 225.232 6.84375 224.867 6.88281C224.503 6.90885 224.177 7.00651 223.891 7.17578C223.76 7.14974 223.624 7.13021 223.48 7.11719C223.337 7.10417 223.194 7.09766 223.051 7.09766C222.738 7.09766 222.393 7.13021 222.016 7.19531C221.651 7.2474 221.326 7.35807 221.039 7.52734C220.974 7.5013 220.902 7.48177 220.824 7.46875C220.759 7.45573 220.681 7.44922 220.59 7.44922C220.564 7.44922 220.544 7.45573 220.531 7.46875C220.518 7.46875 220.499 7.46875 220.473 7.46875C220.46 7.58594 220.473 7.70312 220.512 7.82031C220.564 7.92448 220.648 8.00911 220.766 8.07422C220.714 8.21745 220.688 8.3737 220.688 8.54297C220.688 8.76432 220.701 8.98568 220.727 9.20703C220.766 9.42839 220.785 9.64974 220.785 9.87109C220.785 10.1185 220.753 10.3138 220.688 10.457C220.818 10.8477 220.883 11.2643 220.883 11.707C220.883 11.8633 220.87 12.0195 220.844 12.1758C220.831 12.319 220.824 12.4753 220.824 12.6445C220.824 12.7878 220.876 12.9049 220.98 12.9961C221.085 13.0742 221.137 13.1849 221.137 13.3281C221.137 13.3802 221.124 13.4323 221.098 13.4844C221.28 13.4453 221.456 13.3932 221.625 13.3281C221.794 13.25 221.97 13.2109 222.152 13.2109C222.257 13.2109 222.354 13.2305 222.445 13.2695C222.549 13.3086 222.641 13.3607 222.719 13.4258C222.706 13.4909 222.693 13.5625 222.68 13.6406C222.68 13.7188 222.68 13.7969 222.68 13.875C222.68 14.0182 222.68 14.1549 222.68 14.2852C222.693 14.4023 222.706 14.5326 222.719 14.6758C222.615 14.8581 222.491 15.0208 222.348 15.1641C222.217 15.3073 222.126 15.4896 222.074 15.7109C221.879 15.7109 221.703 15.7565 221.547 15.8477C221.404 15.9258 221.267 16.0169 221.137 16.1211C221.007 16.2122 220.876 16.3034 220.746 16.3945C220.616 16.4727 220.473 16.5117 220.316 16.5117C220.121 16.5117 219.984 16.4857 219.906 16.4336C219.828 16.3685 219.77 16.3034 219.73 16.2383C219.691 16.1732 219.652 16.1146 219.613 16.0625C219.587 16.0104 219.522 15.9909 219.418 16.0039C219.392 15.8346 219.34 15.6784 219.262 15.5352C219.184 15.3789 219.099 15.2292 219.008 15.0859C218.93 14.9427 218.845 14.7995 218.754 14.6562C218.676 14.5 218.617 14.3438 218.578 14.1875C218.5 13.849 218.467 13.4974 218.48 13.1328C218.493 12.7682 218.435 12.4167 218.305 12.0781C218.331 11.8958 218.35 11.7135 218.363 11.5312C218.376 11.3359 218.383 11.1471 218.383 10.9648C218.383 10.6003 218.37 10.2422 218.344 9.89062C218.331 9.52604 218.318 9.15495 218.305 8.77734C218.214 8.66016 218.155 8.52995 218.129 8.38672C218.116 8.23047 218.103 8.08073 218.09 7.9375C218.051 7.89844 218.005 7.85938 217.953 7.82031C217.914 7.78125 217.888 7.72917 217.875 7.66406C217.771 7.63802 217.693 7.625 217.641 7.625C217.458 7.625 217.302 7.67057 217.172 7.76172C217.055 7.83984 216.944 7.87891 216.84 7.87891C216.736 7.87891 216.638 7.86589 216.547 7.83984C216.456 7.8138 216.365 7.80078 216.273 7.80078C216.195 7.80078 216.15 7.82031 216.137 7.85938C216.137 7.88542 216.111 7.91146 216.059 7.9375C216.02 7.96354 215.928 7.98958 215.785 8.01562C215.642 8.04167 215.479 8.06771 215.297 8.09375C215.128 8.10677 214.958 8.11979 214.789 8.13281C214.633 8.14583 214.529 8.15234 214.477 8.15234C214.268 8.15234 214.112 8.11328 214.008 8.03516C213.891 7.94401 213.754 7.84635 213.598 7.74219C213.624 7.66406 213.637 7.61198 213.637 7.58594C213.637 7.45573 213.598 7.35156 213.52 7.27344C213.441 7.18229 213.402 7.10417 213.402 7.03906C213.402 6.89583 213.461 6.78516 213.578 6.70703C213.682 6.62891 213.741 6.50521 213.754 6.33594C214.053 6.20573 214.359 6.10807 214.672 6.04297C214.984 5.97786 215.303 5.92578 215.629 5.88672C215.954 5.84766 216.273 5.80208 216.586 5.75C216.911 5.69792 217.23 5.61328 217.543 5.49609C217.634 5.50911 217.719 5.52214 217.797 5.53516C217.888 5.53516 217.979 5.53516 218.07 5.53516C218.461 5.53516 218.845 5.49609 219.223 5.41797C219.613 5.32682 220.01 5.28125 220.414 5.28125C220.518 5.28125 220.622 5.28776 220.727 5.30078C220.831 5.3138 220.935 5.33333 221.039 5.35938C221.56 5.28125 222.074 5.19661 222.582 5.10547C223.103 5.01432 223.637 4.9362 224.184 4.87109C224.444 4.84505 224.698 4.82552 224.945 4.8125C225.206 4.78646 225.466 4.75391 225.727 4.71484C225.818 4.70182 225.883 4.68229 225.922 4.65625C225.974 4.61719 226 4.54557 226 4.44141C226.117 4.49349 226.247 4.51953 226.391 4.51953C226.612 4.51953 226.827 4.48047 227.035 4.40234C227.243 4.32422 227.458 4.28516 227.68 4.28516C227.732 4.28516 227.777 4.29167 227.816 4.30469C227.855 4.30469 227.895 4.30469 227.934 4.30469C228.025 4.30469 228.07 4.26562 228.07 4.1875C228.083 4.09635 228.148 4.03776 228.266 4.01172C228.357 3.98568 228.487 3.96615 228.656 3.95312C228.826 3.9401 229.001 3.92708 229.184 3.91406C229.379 3.88802 229.555 3.86198 229.711 3.83594C229.88 3.79688 230.004 3.74479 230.082 3.67969L230.219 3.46484C230.453 3.47786 230.622 3.58203 230.727 3.77734C230.844 3.95964 230.909 4.16146 230.922 4.38281C230.974 4.4349 231.046 4.46094 231.137 4.46094C231.241 4.44792 231.332 4.44141 231.41 4.44141H231.469Z" fill="black"/>
<path d="M215.59 4.57812V4.65625C215.499 4.68229 215.453 4.7474 215.453 4.85156C215.31 4.91667 215.16 4.96875 215.004 5.00781C214.848 5.03385 214.698 5.07943 214.555 5.14453C214.411 5.13151 214.262 5.125 214.105 5.125C213.962 5.11198 213.819 5.10547 213.676 5.10547C213.285 5.10547 212.895 5.11849 212.504 5.14453C212.113 5.17057 211.723 5.17057 211.332 5.14453C211.15 5.2487 210.948 5.33333 210.727 5.39844C210.518 5.45052 210.316 5.47656 210.121 5.47656C209.965 5.47656 209.828 5.45703 209.711 5.41797C209.398 5.57422 209.053 5.70443 208.676 5.80859C208.311 5.91276 207.94 6.01693 207.562 6.12109C207.185 6.21224 206.82 6.32292 206.469 6.45312C206.13 6.57031 205.831 6.73958 205.57 6.96094C205.544 7.14323 205.525 7.32552 205.512 7.50781C205.499 7.67708 205.492 7.84635 205.492 8.01562C205.492 8.19792 205.499 8.36719 205.512 8.52344C205.538 8.67969 205.583 8.83594 205.648 8.99219C205.714 9.01823 205.785 9.03776 205.863 9.05078C205.954 9.0638 206.033 9.07031 206.098 9.07031C206.163 9.07031 206.228 9.0638 206.293 9.05078C206.358 9.02474 206.404 8.97917 206.43 8.91406C206.625 8.88802 206.82 8.88151 207.016 8.89453C207.211 8.89453 207.406 8.89453 207.602 8.89453C207.797 8.89453 207.986 8.88802 208.168 8.875C208.363 8.86198 208.552 8.82943 208.734 8.77734C208.943 8.72526 209.145 8.69271 209.34 8.67969C209.548 8.66667 209.75 8.65365 209.945 8.64062C210.141 8.6276 210.342 8.60807 210.551 8.58203C210.759 8.54297 210.974 8.47135 211.195 8.36719C211.365 8.43229 211.534 8.46484 211.703 8.46484C211.885 8.46484 212.061 8.47786 212.23 8.50391C212.322 8.56901 212.393 8.64062 212.445 8.71875C212.51 8.79688 212.543 8.88802 212.543 8.99219C212.543 9.17448 212.478 9.35677 212.348 9.53906C212.217 9.72135 212.113 9.89062 212.035 10.0469H211.82C211.508 10.0469 211.202 10.0924 210.902 10.1836C210.616 10.2617 210.323 10.3594 210.023 10.4766C209.737 10.5807 209.444 10.6784 209.145 10.7695C208.858 10.8477 208.559 10.8867 208.246 10.8867C208.194 10.8867 208.161 10.9193 208.148 10.9844C208.148 11.0365 208.135 11.0755 208.109 11.1016C208.044 11.0885 207.947 11.082 207.816 11.082C207.517 11.082 207.23 11.1146 206.957 11.1797C206.684 11.2448 206.404 11.2773 206.117 11.2773C206.039 11.2773 205.961 11.2773 205.883 11.2773C205.805 11.2643 205.727 11.2513 205.648 11.2383C205.583 11.3424 205.499 11.4141 205.395 11.4531C205.29 11.4792 205.193 11.5312 205.102 11.6094C205.062 11.7266 205.036 11.8698 205.023 12.0391C205.023 12.2083 205.017 12.3841 205.004 12.5664C205.004 12.7357 204.991 12.8984 204.965 13.0547C204.939 13.2109 204.887 13.3346 204.809 13.4258C204.822 13.4909 204.874 13.5169 204.965 13.5039C205.056 13.4779 205.102 13.5169 205.102 13.6211C205.102 13.7383 205.089 13.862 205.062 13.9922C205.036 14.1224 205.023 14.2526 205.023 14.3828C205.023 14.6302 205.049 14.9036 205.102 15.2031C205.167 15.4896 205.258 15.7565 205.375 16.0039C205.505 16.2513 205.674 16.4596 205.883 16.6289C206.091 16.7852 206.352 16.8633 206.664 16.8633C206.872 16.8633 207.068 16.8242 207.25 16.7461C207.432 16.668 207.582 16.5378 207.699 16.3555L207.797 16.3359C207.849 16.3359 207.895 16.3424 207.934 16.3555C207.986 16.3685 208.038 16.375 208.09 16.375C208.168 16.375 208.266 16.3294 208.383 16.2383C208.513 16.1341 208.65 16.0169 208.793 15.8867C208.949 15.7565 209.105 15.6328 209.262 15.5156C209.418 15.3854 209.568 15.2943 209.711 15.2422C209.802 15.0599 209.887 14.8776 209.965 14.6953C210.056 14.513 210.186 14.3698 210.355 14.2656V13.6992C210.486 13.556 210.622 13.4258 210.766 13.3086C210.922 13.1914 211.039 13.0417 211.117 12.8594C211.182 12.8854 211.241 12.9049 211.293 12.918C211.358 12.931 211.423 12.9375 211.488 12.9375C211.553 12.9375 211.618 12.931 211.684 12.918C211.762 12.9049 211.833 12.8854 211.898 12.8594C212.003 13.0026 212.081 13.1654 212.133 13.3477C212.198 13.5169 212.276 13.6797 212.367 13.8359C212.25 14.0703 212.113 14.3503 211.957 14.6758C211.801 15.0013 211.632 15.3268 211.449 15.6523C211.267 15.9779 211.072 16.2904 210.863 16.5898C210.668 16.8763 210.473 17.0977 210.277 17.2539C210.238 17.293 210.154 17.3385 210.023 17.3906C209.88 17.4948 209.75 17.5924 209.633 17.6836C209.516 17.7878 209.405 17.9049 209.301 18.0352C208.923 18.1523 208.559 18.3086 208.207 18.5039C207.868 18.6992 207.53 18.888 207.191 19.0703C207.035 19.0312 206.866 19.0117 206.684 19.0117C206.527 19.0117 206.371 19.0182 206.215 19.0312C206.059 19.0573 205.889 19.0703 205.707 19.0703C205.655 19.0052 205.577 18.9596 205.473 18.9336C205.382 18.9206 205.349 18.8555 205.375 18.7383C204.932 18.7122 204.574 18.5885 204.301 18.3672C204.027 18.1589 203.793 17.8984 203.598 17.5859C203.415 17.2734 203.266 16.9349 203.148 16.5703C203.031 16.2057 202.908 15.8542 202.777 15.5156V15.457C202.777 15.3919 202.803 15.3529 202.855 15.3398C202.908 15.3268 202.934 15.2878 202.934 15.2227C202.934 15.1966 202.927 15.1771 202.914 15.1641C202.875 15.0208 202.842 14.8971 202.816 14.793C202.79 14.6888 202.777 14.5651 202.777 14.4219C202.777 14.2135 202.79 14.0117 202.816 13.8164C202.842 13.6081 202.855 13.3997 202.855 13.1914C202.855 12.9831 202.829 12.8008 202.777 12.6445C202.829 12.5794 202.875 12.4948 202.914 12.3906C202.94 12.2734 202.96 12.1562 202.973 12.0391C202.986 11.9219 202.992 11.8047 202.992 11.6875C203.005 11.5703 203.025 11.4661 203.051 11.375C202.999 11.2318 202.953 11.1081 202.914 11.0039C202.875 10.8867 202.855 10.75 202.855 10.5938V10.457C202.986 10.2357 203.096 10.0078 203.188 9.77344C203.279 9.53906 203.376 9.29818 203.48 9.05078V8.99219C203.48 8.61458 203.467 8.23698 203.441 7.85938C203.415 7.48177 203.402 7.10417 203.402 6.72656V6.35547C203.402 6.22526 203.409 6.10156 203.422 5.98438C203.526 5.93229 203.604 5.86068 203.656 5.76953C203.708 5.67839 203.786 5.60677 203.891 5.55469H204.535L204.652 5.35938C204.691 5.29427 204.717 5.22266 204.73 5.14453C204.874 5.10547 205.01 5.05339 205.141 4.98828C205.284 4.91016 205.414 4.83203 205.531 4.75391C205.714 4.64974 205.876 4.55859 206.02 4.48047C206.176 4.38932 206.326 4.31771 206.469 4.26562C206.625 4.20052 206.788 4.14844 206.957 4.10938C207.126 4.07031 207.322 4.03776 207.543 4.01172C207.647 4.01172 207.712 3.99219 207.738 3.95312C207.777 3.91406 207.829 3.86849 207.895 3.81641C208.051 3.84245 208.207 3.86849 208.363 3.89453C208.52 3.90755 208.676 3.91406 208.832 3.91406C209.145 3.91406 209.438 3.85547 209.711 3.73828C210.102 3.73828 210.486 3.73177 210.863 3.71875C211.254 3.70573 211.645 3.69922 212.035 3.69922C212.374 3.69922 212.712 3.71224 213.051 3.73828C213.389 3.76432 213.721 3.8099 214.047 3.875C214.164 3.83594 214.294 3.81641 214.438 3.81641C214.594 3.81641 214.75 3.83594 214.906 3.875C215.076 3.90104 215.238 3.90104 215.395 3.875C215.408 4.01823 215.44 4.14193 215.492 4.24609C215.557 4.33724 215.59 4.44792 215.59 4.57812Z" fill="black"/>
<path d="M202.875 3.5625C202.875 3.67969 202.823 3.77734 202.719 3.85547C202.628 3.93359 202.582 3.99219 202.582 4.03125C202.582 4.10938 202.595 4.16797 202.621 4.20703C202.647 4.23307 202.66 4.26562 202.66 4.30469V4.40234C202.53 4.53255 202.432 4.67578 202.367 4.83203C202.302 4.97526 202.25 5.13151 202.211 5.30078C202.172 5.45703 202.133 5.61979 202.094 5.78906C202.068 5.95833 202.029 6.12109 201.977 6.27734C201.911 6.43359 201.827 6.57031 201.723 6.6875C201.618 6.79167 201.534 6.91536 201.469 7.05859C201.365 7.29297 201.286 7.53385 201.234 7.78125C201.182 8.02865 201.072 8.25651 200.902 8.46484V8.5625C200.889 8.65365 200.915 8.73177 200.98 8.79688C200.733 9.1224 200.538 9.51302 200.395 9.96875C200.251 10.4115 200.134 10.8802 200.043 11.375C199.952 11.8568 199.874 12.3451 199.809 12.8398C199.743 13.3216 199.665 13.7578 199.574 14.1484C199.639 14.4349 199.737 14.7083 199.867 14.9688C200.01 15.2161 200.147 15.4766 200.277 15.75C200.538 15.8151 200.785 15.9062 201.02 16.0234C201.267 16.1406 201.443 16.3294 201.547 16.5898C201.521 16.8503 201.436 17.0521 201.293 17.1953C201.15 17.3385 200.974 17.4883 200.766 17.6445C200.622 17.5924 200.505 17.5469 200.414 17.5078C200.323 17.4818 200.186 17.4818 200.004 17.5078C199.757 17.3125 199.522 17.1562 199.301 17.0391C199.092 16.9219 198.904 16.7201 198.734 16.4336C198.708 16.3945 198.669 16.375 198.617 16.375H198.441C198.376 16.2188 198.298 16.056 198.207 15.8867C198.116 15.7044 198.025 15.5221 197.934 15.3398C197.842 15.1445 197.764 14.9557 197.699 14.7734C197.634 14.5781 197.602 14.4023 197.602 14.2461C197.602 13.582 197.66 12.9245 197.777 12.2734C197.908 11.6094 197.973 10.9388 197.973 10.2617V10.0664C197.712 10.1315 197.452 10.2227 197.191 10.3398C196.944 10.457 196.69 10.5482 196.43 10.6133C196.339 10.6393 196.286 10.6849 196.273 10.75C196.26 10.8151 196.221 10.8672 196.156 10.9062C196.026 10.9193 195.902 10.9323 195.785 10.9453C195.668 10.9453 195.557 10.9453 195.453 10.9453C195.232 10.9453 194.997 10.9388 194.75 10.9258C194.516 10.8997 194.281 10.8542 194.047 10.7891C193.812 10.724 193.591 10.6328 193.383 10.5156C193.188 10.3984 193.012 10.2487 192.855 10.0664C192.829 10.0794 192.797 10.0924 192.758 10.1055C192.719 10.1185 192.68 10.125 192.641 10.125C192.602 10.125 192.562 10.1185 192.523 10.1055C192.484 10.0924 192.452 10.0794 192.426 10.0664C192.322 9.92318 192.237 9.76693 192.172 9.59766L191.977 9.08984C191.911 8.92057 191.84 8.75781 191.762 8.60156C191.684 8.44531 191.579 8.30208 191.449 8.17188C191.41 7.9375 191.391 7.70964 191.391 7.48828C191.391 7.25391 191.41 7.02604 191.449 6.80469C191.475 6.58333 191.521 6.36198 191.586 6.14062C191.534 5.98438 191.501 5.82161 191.488 5.65234C191.462 5.48307 191.449 5.3138 191.449 5.14453C191.449 4.94922 191.469 4.7474 191.508 4.53906C191.547 4.33073 191.612 4.14193 191.703 3.97266C191.794 3.79036 191.924 3.64062 192.094 3.52344C192.25 3.40625 192.445 3.34766 192.68 3.34766C192.94 3.34766 193.181 3.41927 193.402 3.5625C193.624 3.69271 193.839 3.82943 194.047 3.97266C194.073 4.12891 194.092 4.28516 194.105 4.44141C194.118 4.58464 194.125 4.74089 194.125 4.91016C194.125 5.22266 194.105 5.54167 194.066 5.86719C194.04 6.17969 194.027 6.4987 194.027 6.82422C194.027 7.16276 194.066 7.48177 194.145 7.78125C194.236 8.06771 194.392 8.34115 194.613 8.60156H194.691C194.796 8.58854 194.887 8.60807 194.965 8.66016C195.043 8.71224 195.134 8.73828 195.238 8.73828C195.329 8.73828 195.401 8.70573 195.453 8.64062C195.505 8.5625 195.57 8.52344 195.648 8.52344C195.727 8.52344 195.785 8.53646 195.824 8.5625C195.863 8.58854 195.896 8.60156 195.922 8.60156C196.065 8.60156 196.228 8.54948 196.41 8.44531C196.592 8.34115 196.71 8.22396 196.762 8.09375C196.814 8.13281 196.879 8.15234 196.957 8.15234C197.061 8.15234 197.159 8.11979 197.25 8.05469C197.341 7.98958 197.458 7.95703 197.602 7.95703C197.68 7.95703 197.706 7.91146 197.68 7.82031C197.667 7.71615 197.693 7.65104 197.758 7.625C197.914 7.5599 198.083 7.46875 198.266 7.35156C198.461 7.22135 198.617 7.14323 198.734 7.11719C198.799 6.94792 198.878 6.79167 198.969 6.64844C199.073 6.49219 199.177 6.34896 199.281 6.21875C199.32 5.91927 199.398 5.63281 199.516 5.35938C199.633 5.08594 199.757 4.8125 199.887 4.53906C200.017 4.26562 200.141 3.99219 200.258 3.71875C200.375 3.44531 200.453 3.15885 200.492 2.85938C200.635 2.71615 200.746 2.5599 200.824 2.39062C200.915 2.22135 200.993 2.05208 201.059 1.88281C201.189 1.84375 201.352 1.82422 201.547 1.82422C201.742 1.8112 201.911 1.80469 202.055 1.80469H202.387C202.426 1.88281 202.478 1.95443 202.543 2.01953L202.738 2.21484C202.621 2.39714 202.562 2.57943 202.562 2.76172C202.562 2.90495 202.595 3.04818 202.66 3.19141C202.725 3.32161 202.797 3.44531 202.875 3.5625Z" fill="black"/>
<path d="M187.074 4.44141C187.022 4.61068 186.938 4.76693 186.82 4.91016L186.488 5.32031C186.384 5.45052 186.293 5.59375 186.215 5.75C186.15 5.89323 186.13 6.0625 186.156 6.25781C186.13 6.25781 186.098 6.25781 186.059 6.25781C186.02 6.24479 185.987 6.23828 185.961 6.23828C185.753 6.23828 185.59 6.29036 185.473 6.39453C185.368 6.48568 185.225 6.5638 185.043 6.62891C185.017 6.55078 184.984 6.47917 184.945 6.41406C184.906 6.33594 184.848 6.28385 184.77 6.25781C184.457 6.32292 184.145 6.375 183.832 6.41406C183.52 6.4401 183.207 6.47917 182.895 6.53125C182.751 6.55729 182.608 6.59635 182.465 6.64844C182.322 6.6875 182.172 6.72656 182.016 6.76562C181.938 6.79167 181.853 6.80469 181.762 6.80469C181.671 6.79167 181.579 6.79167 181.488 6.80469C181.176 6.81771 180.837 6.84375 180.473 6.88281C180.108 6.90885 179.783 7.00651 179.496 7.17578C179.366 7.14974 179.229 7.13021 179.086 7.11719C178.943 7.10417 178.799 7.09766 178.656 7.09766C178.344 7.09766 177.999 7.13021 177.621 7.19531C177.257 7.2474 176.931 7.35807 176.645 7.52734C176.579 7.5013 176.508 7.48177 176.43 7.46875C176.365 7.45573 176.286 7.44922 176.195 7.44922C176.169 7.44922 176.15 7.45573 176.137 7.46875C176.124 7.46875 176.104 7.46875 176.078 7.46875C176.065 7.58594 176.078 7.70312 176.117 7.82031C176.169 7.92448 176.254 8.00911 176.371 8.07422C176.319 8.21745 176.293 8.3737 176.293 8.54297C176.293 8.76432 176.306 8.98568 176.332 9.20703C176.371 9.42839 176.391 9.64974 176.391 9.87109C176.391 10.1185 176.358 10.3138 176.293 10.457C176.423 10.8477 176.488 11.2643 176.488 11.707C176.488 11.8633 176.475 12.0195 176.449 12.1758C176.436 12.319 176.43 12.4753 176.43 12.6445C176.43 12.7878 176.482 12.9049 176.586 12.9961C176.69 13.0742 176.742 13.1849 176.742 13.3281C176.742 13.3802 176.729 13.4323 176.703 13.4844C176.885 13.4453 177.061 13.3932 177.23 13.3281C177.4 13.25 177.576 13.2109 177.758 13.2109C177.862 13.2109 177.96 13.2305 178.051 13.2695C178.155 13.3086 178.246 13.3607 178.324 13.4258C178.311 13.4909 178.298 13.5625 178.285 13.6406C178.285 13.7188 178.285 13.7969 178.285 13.875C178.285 14.0182 178.285 14.1549 178.285 14.2852C178.298 14.4023 178.311 14.5326 178.324 14.6758C178.22 14.8581 178.096 15.0208 177.953 15.1641C177.823 15.3073 177.732 15.4896 177.68 15.7109C177.484 15.7109 177.309 15.7565 177.152 15.8477C177.009 15.9258 176.872 16.0169 176.742 16.1211C176.612 16.2122 176.482 16.3034 176.352 16.3945C176.221 16.4727 176.078 16.5117 175.922 16.5117C175.727 16.5117 175.59 16.4857 175.512 16.4336C175.434 16.3685 175.375 16.3034 175.336 16.2383C175.297 16.1732 175.258 16.1146 175.219 16.0625C175.193 16.0104 175.128 15.9909 175.023 16.0039C174.997 15.8346 174.945 15.6784 174.867 15.5352C174.789 15.3789 174.704 15.2292 174.613 15.0859C174.535 14.9427 174.451 14.7995 174.359 14.6562C174.281 14.5 174.223 14.3438 174.184 14.1875C174.105 13.849 174.073 13.4974 174.086 13.1328C174.099 12.7682 174.04 12.4167 173.91 12.0781C173.936 11.8958 173.956 11.7135 173.969 11.5312C173.982 11.3359 173.988 11.1471 173.988 10.9648C173.988 10.6003 173.975 10.2422 173.949 9.89062C173.936 9.52604 173.923 9.15495 173.91 8.77734C173.819 8.66016 173.76 8.52995 173.734 8.38672C173.721 8.23047 173.708 8.08073 173.695 7.9375C173.656 7.89844 173.611 7.85938 173.559 7.82031C173.52 7.78125 173.493 7.72917 173.48 7.66406C173.376 7.63802 173.298 7.625 173.246 7.625C173.064 7.625 172.908 7.67057 172.777 7.76172C172.66 7.83984 172.549 7.87891 172.445 7.87891C172.341 7.87891 172.243 7.86589 172.152 7.83984C172.061 7.8138 171.97 7.80078 171.879 7.80078C171.801 7.80078 171.755 7.82031 171.742 7.85938C171.742 7.88542 171.716 7.91146 171.664 7.9375C171.625 7.96354 171.534 7.98958 171.391 8.01562C171.247 8.04167 171.085 8.06771 170.902 8.09375C170.733 8.10677 170.564 8.11979 170.395 8.13281C170.238 8.14583 170.134 8.15234 170.082 8.15234C169.874 8.15234 169.717 8.11328 169.613 8.03516C169.496 7.94401 169.359 7.84635 169.203 7.74219C169.229 7.66406 169.242 7.61198 169.242 7.58594C169.242 7.45573 169.203 7.35156 169.125 7.27344C169.047 7.18229 169.008 7.10417 169.008 7.03906C169.008 6.89583 169.066 6.78516 169.184 6.70703C169.288 6.62891 169.346 6.50521 169.359 6.33594C169.659 6.20573 169.965 6.10807 170.277 6.04297C170.59 5.97786 170.909 5.92578 171.234 5.88672C171.56 5.84766 171.879 5.80208 172.191 5.75C172.517 5.69792 172.836 5.61328 173.148 5.49609C173.24 5.50911 173.324 5.52214 173.402 5.53516C173.493 5.53516 173.585 5.53516 173.676 5.53516C174.066 5.53516 174.451 5.49609 174.828 5.41797C175.219 5.32682 175.616 5.28125 176.02 5.28125C176.124 5.28125 176.228 5.28776 176.332 5.30078C176.436 5.3138 176.54 5.33333 176.645 5.35938C177.165 5.28125 177.68 5.19661 178.188 5.10547C178.708 5.01432 179.242 4.9362 179.789 4.87109C180.049 4.84505 180.303 4.82552 180.551 4.8125C180.811 4.78646 181.072 4.75391 181.332 4.71484C181.423 4.70182 181.488 4.68229 181.527 4.65625C181.579 4.61719 181.605 4.54557 181.605 4.44141C181.723 4.49349 181.853 4.51953 181.996 4.51953C182.217 4.51953 182.432 4.48047 182.641 4.40234C182.849 4.32422 183.064 4.28516 183.285 4.28516C183.337 4.28516 183.383 4.29167 183.422 4.30469C183.461 4.30469 183.5 4.30469 183.539 4.30469C183.63 4.30469 183.676 4.26562 183.676 4.1875C183.689 4.09635 183.754 4.03776 183.871 4.01172C183.962 3.98568 184.092 3.96615 184.262 3.95312C184.431 3.9401 184.607 3.92708 184.789 3.91406C184.984 3.88802 185.16 3.86198 185.316 3.83594C185.486 3.79688 185.609 3.74479 185.688 3.67969L185.824 3.46484C186.059 3.47786 186.228 3.58203 186.332 3.77734C186.449 3.95964 186.514 4.16146 186.527 4.38281C186.579 4.4349 186.651 4.46094 186.742 4.46094C186.846 4.44792 186.938 4.44141 187.016 4.44141H187.074Z" fill="black"/>
<path d="M170.102 14.5391C170.102 14.7604 170.043 14.9557 169.926 15.125C169.822 15.2812 169.783 15.4766 169.809 15.7109C169.626 15.8151 169.477 15.9518 169.359 16.1211C169.242 16.2904 169.132 16.4661 169.027 16.6484C168.168 17.2083 167.243 17.6576 166.254 17.9961C165.277 18.3477 164.268 18.5234 163.227 18.5234C163.161 18.5234 163.103 18.4909 163.051 18.4258C162.999 18.3737 162.947 18.3151 162.895 18.25C162.842 18.1849 162.784 18.1198 162.719 18.0547C162.667 18.0026 162.602 17.9766 162.523 17.9766C162.432 17.9766 162.361 17.9961 162.309 18.0352C162.309 18.0091 162.309 17.9831 162.309 17.957C162.322 17.944 162.328 17.9245 162.328 17.8984C162.328 17.7422 162.309 17.5794 162.27 17.4102C162.23 17.2539 162.211 17.0977 162.211 16.9414C162.211 16.7591 162.243 16.6094 162.309 16.4922H162.543C162.673 16.4922 162.797 16.4857 162.914 16.4727C163.044 16.4466 163.181 16.4336 163.324 16.4336C163.467 16.4336 163.598 16.4727 163.715 16.5508C164.431 16.5247 165.108 16.3945 165.746 16.1602C166.397 15.9128 167.055 15.6719 167.719 15.4375C167.823 15.2943 167.882 15.138 167.895 14.9688C167.921 14.7865 167.973 14.6172 168.051 14.4609C167.712 14.1745 167.367 13.9531 167.016 13.7969C166.677 13.6276 166.28 13.569 165.824 13.6211C165.551 13.4518 165.258 13.3542 164.945 13.3281C164.646 13.3021 164.34 13.263 164.027 13.2109C163.949 13.1979 163.865 13.1849 163.773 13.1719C163.695 13.1458 163.611 13.1328 163.52 13.1328C163.454 13.1328 163.389 13.1523 163.324 13.1914C163.272 13.2174 163.259 13.263 163.285 13.3281C163.22 13.224 163.129 13.1654 163.012 13.1523C162.908 13.1263 162.816 13.0742 162.738 12.9961C162.322 12.9701 161.957 12.8984 161.645 12.7812C161.332 12.651 160.987 12.5078 160.609 12.3516C160.505 12.3125 160.401 12.2865 160.297 12.2734C160.206 12.2474 160.115 12.2083 160.023 12.1562C159.789 12.0391 159.6 11.8828 159.457 11.6875C159.314 11.4922 159.203 11.2773 159.125 11.043C159.034 10.7956 158.969 10.5417 158.93 10.2812C158.891 10.0208 158.852 9.77995 158.812 9.55859C158.93 9.35026 159.04 9.13542 159.145 8.91406C159.236 8.69271 159.314 8.45833 159.379 8.21094C159.457 8.17188 159.535 8.13932 159.613 8.11328C159.691 8.08724 159.776 8.05469 159.867 8.01562C159.854 7.98958 159.848 7.95703 159.848 7.91797C159.848 7.85286 159.867 7.78776 159.906 7.72266C159.958 7.65755 159.971 7.59245 159.945 7.52734C160.232 7.26693 160.505 7 160.766 6.72656C161.039 6.4401 161.273 6.1276 161.469 5.78906C161.664 5.72396 161.82 5.6263 161.938 5.49609C162.055 5.36589 162.172 5.23568 162.289 5.10547C162.406 4.96224 162.536 4.83854 162.68 4.73438C162.823 4.61719 163.005 4.54557 163.227 4.51953C163.279 4.42839 163.35 4.35677 163.441 4.30469C163.533 4.23958 163.624 4.18099 163.715 4.12891C163.806 4.07682 163.891 4.01823 163.969 3.95312C164.047 3.88802 164.105 3.79688 164.145 3.67969C164.353 3.67969 164.542 3.64062 164.711 3.5625C164.893 3.48438 165.069 3.39974 165.238 3.30859C165.408 3.21745 165.577 3.13281 165.746 3.05469C165.928 2.97656 166.124 2.9375 166.332 2.9375C166.384 2.9375 166.436 2.94401 166.488 2.95703C166.54 2.95703 166.599 2.96354 166.664 2.97656C166.755 3.06771 166.814 3.17839 166.84 3.30859C166.879 3.42578 166.905 3.55599 166.918 3.69922C166.931 3.84245 166.938 3.98568 166.938 4.12891C166.951 4.27214 166.977 4.40234 167.016 4.51953C166.898 4.74089 166.768 4.96224 166.625 5.18359C166.495 5.40495 166.319 5.57422 166.098 5.69141H166.059C165.967 5.70443 165.883 5.6849 165.805 5.63281C165.727 5.58073 165.635 5.55469 165.531 5.55469C165.466 5.55469 165.414 5.57422 165.375 5.61328L165.277 5.71094C165.251 5.73698 165.212 5.76302 165.16 5.78906C165.121 5.8151 165.062 5.8151 164.984 5.78906C164.802 5.85417 164.73 5.96484 164.77 6.12109C164.522 6.14714 164.314 6.22526 164.145 6.35547C163.975 6.47266 163.819 6.60938 163.676 6.76562C163.533 6.90885 163.389 7.04557 163.246 7.17578C163.103 7.29297 162.934 7.35807 162.738 7.37109C162.517 7.76172 162.243 8.10677 161.918 8.40625C161.605 8.70573 161.345 9.04427 161.137 9.42188C161.176 9.52604 161.202 9.63672 161.215 9.75391C161.228 9.87109 161.247 9.99479 161.273 10.125C161.391 10.2812 161.527 10.418 161.684 10.5352C161.853 10.6523 162.016 10.7695 162.172 10.8867H162.23C162.491 10.8867 162.732 10.9388 162.953 11.043C163.174 11.1341 163.409 11.1797 163.656 11.1797C163.786 11.1797 163.897 11.1536 163.988 11.1016C164.327 11.1797 164.659 11.2448 164.984 11.2969C165.323 11.349 165.661 11.388 166 11.4141C166.169 11.4401 166.339 11.4531 166.508 11.4531C166.69 11.4531 166.859 11.4727 167.016 11.5117C167.159 11.5508 167.302 11.6029 167.445 11.668C167.589 11.7201 167.732 11.7786 167.875 11.8438C168.174 11.974 168.454 12.1172 168.715 12.2734C168.988 12.4297 169.229 12.6185 169.438 12.8398C169.646 13.0482 169.809 13.2956 169.926 13.582C170.043 13.8555 170.102 14.1745 170.102 14.5391Z" fill="black"/>
<path d="M160.707 4.57812V4.65625C160.616 4.68229 160.57 4.7474 160.57 4.85156C160.427 4.91667 160.277 4.96875 160.121 5.00781C159.965 5.03385 159.815 5.07943 159.672 5.14453C159.529 5.13151 159.379 5.125 159.223 5.125C159.079 5.11198 158.936 5.10547 158.793 5.10547C158.402 5.10547 158.012 5.11849 157.621 5.14453C157.23 5.17057 156.84 5.17057 156.449 5.14453C156.267 5.2487 156.065 5.33333 155.844 5.39844C155.635 5.45052 155.434 5.47656 155.238 5.47656C155.082 5.47656 154.945 5.45703 154.828 5.41797C154.516 5.57422 154.171 5.70443 153.793 5.80859C153.428 5.91276 153.057 6.01693 152.68 6.12109C152.302 6.21224 151.938 6.32292 151.586 6.45312C151.247 6.57031 150.948 6.73958 150.688 6.96094C150.661 7.14323 150.642 7.32552 150.629 7.50781C150.616 7.67708 150.609 7.84635 150.609 8.01562C150.609 8.19792 150.616 8.36719 150.629 8.52344C150.655 8.67969 150.701 8.83594 150.766 8.99219C150.831 9.01823 150.902 9.03776 150.98 9.05078C151.072 9.0638 151.15 9.07031 151.215 9.07031C151.28 9.07031 151.345 9.0638 151.41 9.05078C151.475 9.02474 151.521 8.97917 151.547 8.91406C151.742 8.88802 151.938 8.88151 152.133 8.89453C152.328 8.89453 152.523 8.89453 152.719 8.89453C152.914 8.89453 153.103 8.88802 153.285 8.875C153.48 8.86198 153.669 8.82943 153.852 8.77734C154.06 8.72526 154.262 8.69271 154.457 8.67969C154.665 8.66667 154.867 8.65365 155.062 8.64062C155.258 8.6276 155.46 8.60807 155.668 8.58203C155.876 8.54297 156.091 8.47135 156.312 8.36719C156.482 8.43229 156.651 8.46484 156.82 8.46484C157.003 8.46484 157.178 8.47786 157.348 8.50391C157.439 8.56901 157.51 8.64062 157.562 8.71875C157.628 8.79688 157.66 8.88802 157.66 8.99219C157.66 9.17448 157.595 9.35677 157.465 9.53906C157.335 9.72135 157.23 9.89062 157.152 10.0469H156.938C156.625 10.0469 156.319 10.0924 156.02 10.1836C155.733 10.2617 155.44 10.3594 155.141 10.4766C154.854 10.5807 154.561 10.6784 154.262 10.7695C153.975 10.8477 153.676 10.8867 153.363 10.8867C153.311 10.8867 153.279 10.9193 153.266 10.9844C153.266 11.0365 153.253 11.0755 153.227 11.1016C153.161 11.0885 153.064 11.082 152.934 11.082C152.634 11.082 152.348 11.1146 152.074 11.1797C151.801 11.2448 151.521 11.2773 151.234 11.2773C151.156 11.2773 151.078 11.2773 151 11.2773C150.922 11.2643 150.844 11.2513 150.766 11.2383C150.701 11.3424 150.616 11.4141 150.512 11.4531C150.408 11.4792 150.31 11.5312 150.219 11.6094C150.18 11.7266 150.154 11.8698 150.141 12.0391C150.141 12.2083 150.134 12.3841 150.121 12.5664C150.121 12.7357 150.108 12.8984 150.082 13.0547C150.056 13.2109 150.004 13.3346 149.926 13.4258C149.939 13.4909 149.991 13.5169 150.082 13.5039C150.173 13.4779 150.219 13.5169 150.219 13.6211C150.219 13.7383 150.206 13.862 150.18 13.9922C150.154 14.1224 150.141 14.2526 150.141 14.3828C150.141 14.6302 150.167 14.9036 150.219 15.2031C150.284 15.4896 150.375 15.7565 150.492 16.0039C150.622 16.2513 150.792 16.4596 151 16.6289C151.208 16.7852 151.469 16.8633 151.781 16.8633C151.99 16.8633 152.185 16.8242 152.367 16.7461C152.549 16.668 152.699 16.5378 152.816 16.3555L152.914 16.3359C152.966 16.3359 153.012 16.3424 153.051 16.3555C153.103 16.3685 153.155 16.375 153.207 16.375C153.285 16.375 153.383 16.3294 153.5 16.2383C153.63 16.1341 153.767 16.0169 153.91 15.8867C154.066 15.7565 154.223 15.6328 154.379 15.5156C154.535 15.3854 154.685 15.2943 154.828 15.2422C154.919 15.0599 155.004 14.8776 155.082 14.6953C155.173 14.513 155.303 14.3698 155.473 14.2656V13.6992C155.603 13.556 155.74 13.4258 155.883 13.3086C156.039 13.1914 156.156 13.0417 156.234 12.8594C156.299 12.8854 156.358 12.9049 156.41 12.918C156.475 12.931 156.54 12.9375 156.605 12.9375C156.671 12.9375 156.736 12.931 156.801 12.918C156.879 12.9049 156.951 12.8854 157.016 12.8594C157.12 13.0026 157.198 13.1654 157.25 13.3477C157.315 13.5169 157.393 13.6797 157.484 13.8359C157.367 14.0703 157.23 14.3503 157.074 14.6758C156.918 15.0013 156.749 15.3268 156.566 15.6523C156.384 15.9779 156.189 16.2904 155.98 16.5898C155.785 16.8763 155.59 17.0977 155.395 17.2539C155.355 17.293 155.271 17.3385 155.141 17.3906C154.997 17.4948 154.867 17.5924 154.75 17.6836C154.633 17.7878 154.522 17.9049 154.418 18.0352C154.04 18.1523 153.676 18.3086 153.324 18.5039C152.986 18.6992 152.647 18.888 152.309 19.0703C152.152 19.0312 151.983 19.0117 151.801 19.0117C151.645 19.0117 151.488 19.0182 151.332 19.0312C151.176 19.0573 151.007 19.0703 150.824 19.0703C150.772 19.0052 150.694 18.9596 150.59 18.9336C150.499 18.9206 150.466 18.8555 150.492 18.7383C150.049 18.7122 149.691 18.5885 149.418 18.3672C149.145 18.1589 148.91 17.8984 148.715 17.5859C148.533 17.2734 148.383 16.9349 148.266 16.5703C148.148 16.2057 148.025 15.8542 147.895 15.5156V15.457C147.895 15.3919 147.921 15.3529 147.973 15.3398C148.025 15.3268 148.051 15.2878 148.051 15.2227C148.051 15.1966 148.044 15.1771 148.031 15.1641C147.992 15.0208 147.96 14.8971 147.934 14.793C147.908 14.6888 147.895 14.5651 147.895 14.4219C147.895 14.2135 147.908 14.0117 147.934 13.8164C147.96 13.6081 147.973 13.3997 147.973 13.1914C147.973 12.9831 147.947 12.8008 147.895 12.6445C147.947 12.5794 147.992 12.4948 148.031 12.3906C148.057 12.2734 148.077 12.1562 148.09 12.0391C148.103 11.9219 148.109 11.8047 148.109 11.6875C148.122 11.5703 148.142 11.4661 148.168 11.375C148.116 11.2318 148.07 11.1081 148.031 11.0039C147.992 10.8867 147.973 10.75 147.973 10.5938V10.457C148.103 10.2357 148.214 10.0078 148.305 9.77344C148.396 9.53906 148.493 9.29818 148.598 9.05078V8.99219C148.598 8.61458 148.585 8.23698 148.559 7.85938C148.533 7.48177 148.52 7.10417 148.52 6.72656V6.35547C148.52 6.22526 148.526 6.10156 148.539 5.98438C148.643 5.93229 148.721 5.86068 148.773 5.76953C148.826 5.67839 148.904 5.60677 149.008 5.55469H149.652L149.77 5.35938C149.809 5.29427 149.835 5.22266 149.848 5.14453C149.991 5.10547 150.128 5.05339 150.258 4.98828C150.401 4.91016 150.531 4.83203 150.648 4.75391C150.831 4.64974 150.993 4.55859 151.137 4.48047C151.293 4.38932 151.443 4.31771 151.586 4.26562C151.742 4.20052 151.905 4.14844 152.074 4.10938C152.243 4.07031 152.439 4.03776 152.66 4.01172C152.764 4.01172 152.829 3.99219 152.855 3.95312C152.895 3.91406 152.947 3.86849 153.012 3.81641C153.168 3.84245 153.324 3.86849 153.48 3.89453C153.637 3.90755 153.793 3.91406 153.949 3.91406C154.262 3.91406 154.555 3.85547 154.828 3.73828C155.219 3.73828 155.603 3.73177 155.98 3.71875C156.371 3.70573 156.762 3.69922 157.152 3.69922C157.491 3.69922 157.829 3.71224 158.168 3.73828C158.507 3.76432 158.839 3.8099 159.164 3.875C159.281 3.83594 159.411 3.81641 159.555 3.81641C159.711 3.81641 159.867 3.83594 160.023 3.875C160.193 3.90104 160.355 3.90104 160.512 3.875C160.525 4.01823 160.557 4.14193 160.609 4.24609C160.674 4.33724 160.707 4.44792 160.707 4.57812Z" fill="black"/>
<path d="M148.09 3.23047C148.09 3.34766 148.064 3.45833 148.012 3.5625L147.875 3.85547C147.836 3.94661 147.797 4.04427 147.758 4.14844C147.719 4.2526 147.706 4.3763 147.719 4.51953C147.536 4.72786 147.354 4.92969 147.172 5.125C146.99 5.32031 146.827 5.54167 146.684 5.78906C146.54 5.77604 146.43 5.80859 146.352 5.88672C146.286 5.96484 146.234 6.06901 146.195 6.19922C145.922 6.29036 145.681 6.43359 145.473 6.62891C145.264 6.8112 145.082 7.01302 144.926 7.23438C144.236 7.52083 143.591 7.8724 142.992 8.28906C142.393 8.70573 141.846 9.19401 141.352 9.75391C141.586 9.75391 141.814 9.77995 142.035 9.83203C142.27 9.88411 142.497 9.94271 142.719 10.0078C142.953 10.0599 143.181 10.112 143.402 10.1641C143.624 10.2031 143.852 10.2096 144.086 10.1836C144.255 10.3398 144.444 10.4701 144.652 10.5742C144.874 10.6784 145.089 10.776 145.297 10.8672C145.518 10.9583 145.727 11.0625 145.922 11.1797C146.13 11.2969 146.312 11.4401 146.469 11.6094C146.469 11.6354 146.462 11.6615 146.449 11.6875C146.449 11.7005 146.449 11.7201 146.449 11.7461C146.449 11.8503 146.475 11.9544 146.527 12.0586C146.579 12.1497 146.605 12.2474 146.605 12.3516C146.54 12.4557 146.482 12.5664 146.43 12.6836C146.378 12.8008 146.312 12.9049 146.234 12.9961C146.169 13.0872 146.091 13.1654 146 13.2305C145.909 13.2956 145.785 13.3346 145.629 13.3477C145.564 13.569 145.46 13.7448 145.316 13.875C145.173 13.9922 145.01 14.1029 144.828 14.207C144.659 14.2982 144.49 14.3958 144.32 14.5C144.151 14.5911 144.008 14.7148 143.891 14.8711C143.5 14.9622 143.116 15.0924 142.738 15.2617C142.374 15.418 142.048 15.6458 141.762 15.9453C141.566 15.9714 141.365 16.0039 141.156 16.043C140.961 16.069 140.766 16.082 140.57 16.082C140.297 16.082 140.076 16.0299 139.906 15.9258C139.737 15.8086 139.639 15.6003 139.613 15.3008C139.652 15.2096 139.711 15.1315 139.789 15.0664L140.043 14.8711C140.134 14.806 140.212 14.7409 140.277 14.6758C140.355 14.5977 140.414 14.5065 140.453 14.4023C140.479 14.4023 140.512 14.4089 140.551 14.4219C140.59 14.4219 140.629 14.4219 140.668 14.4219C140.824 14.4219 140.948 14.3893 141.039 14.3242C141.13 14.2591 141.215 14.194 141.293 14.1289C141.384 14.0638 141.482 14.0052 141.586 13.9531C141.69 13.901 141.827 13.8815 141.996 13.8945C142.087 13.7253 142.224 13.6016 142.406 13.5234C142.589 13.4323 142.777 13.3542 142.973 13.2891C143.168 13.2109 143.35 13.1263 143.52 13.0352C143.702 12.931 143.826 12.7812 143.891 12.5859C143.826 12.4818 143.741 12.4036 143.637 12.3516C143.533 12.2865 143.415 12.2344 143.285 12.1953L142.914 12.0781C142.797 12.0391 142.693 11.9935 142.602 11.9414C142.458 11.9805 142.322 12 142.191 12C141.918 12 141.651 11.974 141.391 11.9219C141.13 11.8698 140.863 11.8438 140.59 11.8438C140.342 11.8438 140.128 11.8763 139.945 11.9414C139.88 11.9284 139.809 11.9089 139.73 11.8828C139.665 11.8568 139.6 11.8307 139.535 11.8047C139.236 11.9219 138.923 11.9805 138.598 11.9805H137.328C137.224 11.9805 137.12 11.9935 137.016 12.0195C136.872 12.2799 136.801 12.5599 136.801 12.8594C136.801 13.0807 136.833 13.2956 136.898 13.5039C136.964 13.6992 137.029 13.9076 137.094 14.1289C137.354 14.3633 137.595 14.6432 137.816 14.9688C138.038 15.2812 138.148 15.6263 138.148 16.0039C138.148 16.0951 138.142 16.1667 138.129 16.2188C137.999 16.1276 137.829 16.082 137.621 16.082C137.439 16.082 137.263 16.1081 137.094 16.1602C136.938 16.2122 136.768 16.2513 136.586 16.2773C136.443 16.2122 136.293 16.1471 136.137 16.082C135.98 16.0039 135.831 15.9128 135.688 15.8086C135.583 15.5872 135.479 15.3789 135.375 15.1836C135.271 14.9753 135.141 14.7799 134.984 14.5977V14.5195C134.984 14.0638 134.945 13.6146 134.867 13.1719C134.802 12.7292 134.77 12.2799 134.77 11.8242C134.77 11.6159 134.776 11.4076 134.789 11.1992C134.815 10.9779 134.88 10.776 134.984 10.5938C134.945 10.2812 134.926 9.95573 134.926 9.61719C134.926 8.9401 134.965 8.26302 135.043 7.58594C135.121 6.90885 135.16 6.21875 135.16 5.51562C135.16 5.3724 135.154 5.22917 135.141 5.08594C135.141 4.94271 135.134 4.79948 135.121 4.65625H135.043C134.874 4.65625 134.711 4.68229 134.555 4.73438C134.398 4.77344 134.242 4.81901 134.086 4.87109C133.93 4.92318 133.767 4.97526 133.598 5.02734C133.428 5.06641 133.259 5.08594 133.09 5.08594C132.986 5.13802 132.901 5.1901 132.836 5.24219C132.771 5.29427 132.706 5.33984 132.641 5.37891C132.576 5.41797 132.504 5.45052 132.426 5.47656C132.335 5.5026 132.23 5.50911 132.113 5.49609C131.97 5.58724 131.859 5.65885 131.781 5.71094C131.69 5.75 131.566 5.79557 131.41 5.84766C131.332 5.8737 131.267 5.91276 131.215 5.96484L131.059 6.10156C131.007 6.14062 130.948 6.17969 130.883 6.21875C130.818 6.25781 130.733 6.27734 130.629 6.27734C130.538 6.27734 130.473 6.27083 130.434 6.25781C130.355 6.19271 130.29 6.11458 130.238 6.02344C130.173 5.93229 130.115 5.84766 130.062 5.76953C129.997 5.67839 129.932 5.60026 129.867 5.53516C129.789 5.45703 129.698 5.39844 129.594 5.35938C129.646 5.29427 129.672 5.24219 129.672 5.20312C129.659 5.15104 129.652 5.09245 129.652 5.02734C129.652 4.98828 129.659 4.96224 129.672 4.94922C129.737 4.71484 129.854 4.53255 130.023 4.40234C130.193 4.25911 130.382 4.14844 130.59 4.07031C130.798 3.97917 131.013 3.90104 131.234 3.83594C131.443 3.77083 131.638 3.69271 131.82 3.60156C132.328 3.61458 132.79 3.56901 133.207 3.46484C133.624 3.34766 134.053 3.1849 134.496 2.97656C134.574 3.01562 134.652 3.03516 134.73 3.03516C134.796 3.03516 134.861 3.02865 134.926 3.01562L135.121 2.97656C135.277 2.84635 135.447 2.76172 135.629 2.72266C135.811 2.68359 135.993 2.65104 136.176 2.625C136.358 2.59896 136.534 2.57292 136.703 2.54688C136.872 2.50781 137.022 2.4362 137.152 2.33203H137.23C137.543 2.33203 137.855 2.27995 138.168 2.17578C138.493 2.07161 138.806 2.03255 139.105 2.05859C139.366 1.91536 139.607 1.82422 139.828 1.78516C140.049 1.74609 140.303 1.72656 140.59 1.72656C140.655 1.72656 140.733 1.70052 140.824 1.64844C140.915 1.58333 141.026 1.55078 141.156 1.55078C141.182 1.55078 141.202 1.55729 141.215 1.57031C141.241 1.57031 141.267 1.57031 141.293 1.57031C141.41 1.57031 141.488 1.53125 141.527 1.45312C141.579 1.375 141.703 1.33594 141.898 1.33594C141.99 1.33594 142.074 1.34245 142.152 1.35547C142.23 1.35547 142.309 1.35547 142.387 1.35547C142.478 1.35547 142.536 1.32292 142.562 1.25781C142.589 1.17969 142.647 1.14714 142.738 1.16016C142.777 1.21224 142.842 1.23828 142.934 1.23828C143.025 1.22526 143.096 1.21875 143.148 1.21875C143.24 1.21875 143.292 1.24479 143.305 1.29688C143.513 1.16667 143.741 1.08203 143.988 1.04297C144.249 1.00391 144.496 0.984375 144.73 0.984375C144.822 0.984375 144.913 0.990885 145.004 1.00391C145.095 1.00391 145.193 1.01042 145.297 1.02344C145.414 0.945312 145.551 0.90625 145.707 0.90625C145.798 0.90625 145.941 0.945312 146.137 1.02344C146.345 1.10156 146.56 1.19271 146.781 1.29688C147.003 1.40104 147.204 1.51172 147.387 1.62891C147.569 1.74609 147.68 1.84375 147.719 1.92188C147.745 1.94792 147.758 2.00651 147.758 2.09766C147.771 2.1888 147.79 2.26693 147.816 2.33203C147.882 2.48828 147.94 2.63802 147.992 2.78125C148.057 2.91146 148.09 3.0612 148.09 3.23047ZM145.922 3.44531C145.922 3.41927 145.915 3.39323 145.902 3.36719C145.902 3.32812 145.902 3.29557 145.902 3.26953C145.837 3.19141 145.746 3.13281 145.629 3.09375C145.525 3.05469 145.408 3.02214 145.277 2.99609C145.16 2.97005 145.036 2.95052 144.906 2.9375C144.789 2.91146 144.685 2.87891 144.594 2.83984C144.32 2.93099 144.021 2.97656 143.695 2.97656C143.396 2.97656 143.129 2.93099 142.895 2.83984C142.777 2.95703 142.628 3.04818 142.445 3.11328C142.263 3.17839 142.068 3.23047 141.859 3.26953C141.664 3.29557 141.462 3.3151 141.254 3.32812C141.059 3.32812 140.883 3.32812 140.727 3.32812C140.674 3.32812 140.583 3.36719 140.453 3.44531C140.323 3.52344 140.206 3.5625 140.102 3.5625C140.023 3.5625 139.952 3.52995 139.887 3.46484C139.77 3.55599 139.607 3.63411 139.398 3.69922C139.19 3.76432 138.975 3.82292 138.754 3.875C138.533 3.91406 138.305 3.95964 138.07 4.01172C137.849 4.0638 137.66 4.11589 137.504 4.16797C137.348 4.50651 137.263 4.8776 137.25 5.28125C137.237 5.67188 137.23 6.05599 137.23 6.43359C137.23 6.65495 137.217 6.86979 137.191 7.07812C137.165 7.28646 137.152 7.5013 137.152 7.72266C137.152 7.82682 137.159 7.9375 137.172 8.05469C137.185 8.15885 137.224 8.26302 137.289 8.36719C137.185 8.44531 137.113 8.54948 137.074 8.67969C137.048 8.79688 137.035 8.91406 137.035 9.03125C137.035 9.17448 137.048 9.30469 137.074 9.42188C137.1 9.53906 137.126 9.64974 137.152 9.75391C137.569 9.71484 137.947 9.63672 138.285 9.51953C138.637 9.40234 138.962 9.25911 139.262 9.08984C139.574 8.92057 139.874 8.72526 140.16 8.50391C140.447 8.28255 140.746 8.04818 141.059 7.80078C141.189 7.77474 141.293 7.73568 141.371 7.68359C141.462 7.63151 141.573 7.60547 141.703 7.60547C141.755 7.42318 141.853 7.29948 141.996 7.23438C142.139 7.15625 142.25 7.04557 142.328 6.90234C142.484 6.86328 142.615 6.8112 142.719 6.74609C142.836 6.66797 142.947 6.59635 143.051 6.53125C143.155 6.45312 143.266 6.38151 143.383 6.31641C143.513 6.2513 143.656 6.21224 143.812 6.19922C144.034 5.9388 144.262 5.67839 144.496 5.41797C144.743 5.15755 145.03 4.94922 145.355 4.79297C145.408 4.66276 145.466 4.55208 145.531 4.46094C145.596 4.35677 145.655 4.25911 145.707 4.16797C145.772 4.0638 145.824 3.95964 145.863 3.85547C145.902 3.73828 145.922 3.60156 145.922 3.44531Z" fill="black"/>
<path d="M126.176 4.57812V4.65625C126.085 4.68229 126.039 4.7474 126.039 4.85156C125.896 4.91667 125.746 4.96875 125.59 5.00781C125.434 5.03385 125.284 5.07943 125.141 5.14453C124.997 5.13151 124.848 5.125 124.691 5.125C124.548 5.11198 124.405 5.10547 124.262 5.10547C123.871 5.10547 123.48 5.11849 123.09 5.14453C122.699 5.17057 122.309 5.17057 121.918 5.14453C121.736 5.2487 121.534 5.33333 121.312 5.39844C121.104 5.45052 120.902 5.47656 120.707 5.47656C120.551 5.47656 120.414 5.45703 120.297 5.41797C119.984 5.57422 119.639 5.70443 119.262 5.80859C118.897 5.91276 118.526 6.01693 118.148 6.12109C117.771 6.21224 117.406 6.32292 117.055 6.45312C116.716 6.57031 116.417 6.73958 116.156 6.96094C116.13 7.14323 116.111 7.32552 116.098 7.50781C116.085 7.67708 116.078 7.84635 116.078 8.01562C116.078 8.19792 116.085 8.36719 116.098 8.52344C116.124 8.67969 116.169 8.83594 116.234 8.99219C116.299 9.01823 116.371 9.03776 116.449 9.05078C116.54 9.0638 116.618 9.07031 116.684 9.07031C116.749 9.07031 116.814 9.0638 116.879 9.05078C116.944 9.02474 116.99 8.97917 117.016 8.91406C117.211 8.88802 117.406 8.88151 117.602 8.89453C117.797 8.89453 117.992 8.89453 118.188 8.89453C118.383 8.89453 118.572 8.88802 118.754 8.875C118.949 8.86198 119.138 8.82943 119.32 8.77734C119.529 8.72526 119.73 8.69271 119.926 8.67969C120.134 8.66667 120.336 8.65365 120.531 8.64062C120.727 8.6276 120.928 8.60807 121.137 8.58203C121.345 8.54297 121.56 8.47135 121.781 8.36719C121.951 8.43229 122.12 8.46484 122.289 8.46484C122.471 8.46484 122.647 8.47786 122.816 8.50391C122.908 8.56901 122.979 8.64062 123.031 8.71875C123.096 8.79688 123.129 8.88802 123.129 8.99219C123.129 9.17448 123.064 9.35677 122.934 9.53906C122.803 9.72135 122.699 9.89062 122.621 10.0469H122.406C122.094 10.0469 121.788 10.0924 121.488 10.1836C121.202 10.2617 120.909 10.3594 120.609 10.4766C120.323 10.5807 120.03 10.6784 119.73 10.7695C119.444 10.8477 119.145 10.8867 118.832 10.8867C118.78 10.8867 118.747 10.9193 118.734 10.9844C118.734 11.0365 118.721 11.0755 118.695 11.1016C118.63 11.0885 118.533 11.082 118.402 11.082C118.103 11.082 117.816 11.1146 117.543 11.1797C117.27 11.2448 116.99 11.2773 116.703 11.2773C116.625 11.2773 116.547 11.2773 116.469 11.2773C116.391 11.2643 116.312 11.2513 116.234 11.2383C116.169 11.3424 116.085 11.4141 115.98 11.4531C115.876 11.4792 115.779 11.5312 115.688 11.6094C115.648 11.7266 115.622 11.8698 115.609 12.0391C115.609 12.2083 115.603 12.3841 115.59 12.5664C115.59 12.7357 115.577 12.8984 115.551 13.0547C115.525 13.2109 115.473 13.3346 115.395 13.4258C115.408 13.4909 115.46 13.5169 115.551 13.5039C115.642 13.4779 115.688 13.5169 115.688 13.6211C115.688 13.7383 115.674 13.862 115.648 13.9922C115.622 14.1224 115.609 14.2526 115.609 14.3828C115.609 14.6302 115.635 14.9036 115.688 15.2031C115.753 15.4896 115.844 15.7565 115.961 16.0039C116.091 16.2513 116.26 16.4596 116.469 16.6289C116.677 16.7852 116.938 16.8633 117.25 16.8633C117.458 16.8633 117.654 16.8242 117.836 16.7461C118.018 16.668 118.168 16.5378 118.285 16.3555L118.383 16.3359C118.435 16.3359 118.48 16.3424 118.52 16.3555C118.572 16.3685 118.624 16.375 118.676 16.375C118.754 16.375 118.852 16.3294 118.969 16.2383C119.099 16.1341 119.236 16.0169 119.379 15.8867C119.535 15.7565 119.691 15.6328 119.848 15.5156C120.004 15.3854 120.154 15.2943 120.297 15.2422C120.388 15.0599 120.473 14.8776 120.551 14.6953C120.642 14.513 120.772 14.3698 120.941 14.2656V13.6992C121.072 13.556 121.208 13.4258 121.352 13.3086C121.508 13.1914 121.625 13.0417 121.703 12.8594C121.768 12.8854 121.827 12.9049 121.879 12.918C121.944 12.931 122.009 12.9375 122.074 12.9375C122.139 12.9375 122.204 12.931 122.27 12.918C122.348 12.9049 122.419 12.8854 122.484 12.8594C122.589 13.0026 122.667 13.1654 122.719 13.3477C122.784 13.5169 122.862 13.6797 122.953 13.8359C122.836 14.0703 122.699 14.3503 122.543 14.6758C122.387 15.0013 122.217 15.3268 122.035 15.6523C121.853 15.9779 121.658 16.2904 121.449 16.5898C121.254 16.8763 121.059 17.0977 120.863 17.2539C120.824 17.293 120.74 17.3385 120.609 17.3906C120.466 17.4948 120.336 17.5924 120.219 17.6836C120.102 17.7878 119.991 17.9049 119.887 18.0352C119.509 18.1523 119.145 18.3086 118.793 18.5039C118.454 18.6992 118.116 18.888 117.777 19.0703C117.621 19.0312 117.452 19.0117 117.27 19.0117C117.113 19.0117 116.957 19.0182 116.801 19.0312C116.645 19.0573 116.475 19.0703 116.293 19.0703C116.241 19.0052 116.163 18.9596 116.059 18.9336C115.967 18.9206 115.935 18.8555 115.961 18.7383C115.518 18.7122 115.16 18.5885 114.887 18.3672C114.613 18.1589 114.379 17.8984 114.184 17.5859C114.001 17.2734 113.852 16.9349 113.734 16.5703C113.617 16.2057 113.493 15.8542 113.363 15.5156V15.457C113.363 15.3919 113.389 15.3529 113.441 15.3398C113.493 15.3268 113.52 15.2878 113.52 15.2227C113.52 15.1966 113.513 15.1771 113.5 15.1641C113.461 15.0208 113.428 14.8971 113.402 14.793C113.376 14.6888 113.363 14.5651 113.363 14.4219C113.363 14.2135 113.376 14.0117 113.402 13.8164C113.428 13.6081 113.441 13.3997 113.441 13.1914C113.441 12.9831 113.415 12.8008 113.363 12.6445C113.415 12.5794 113.461 12.4948 113.5 12.3906C113.526 12.2734 113.546 12.1562 113.559 12.0391C113.572 11.9219 113.578 11.8047 113.578 11.6875C113.591 11.5703 113.611 11.4661 113.637 11.375C113.585 11.2318 113.539 11.1081 113.5 11.0039C113.461 10.8867 113.441 10.75 113.441 10.5938V10.457C113.572 10.2357 113.682 10.0078 113.773 9.77344C113.865 9.53906 113.962 9.29818 114.066 9.05078V8.99219C114.066 8.61458 114.053 8.23698 114.027 7.85938C114.001 7.48177 113.988 7.10417 113.988 6.72656V6.35547C113.988 6.22526 113.995 6.10156 114.008 5.98438C114.112 5.93229 114.19 5.86068 114.242 5.76953C114.294 5.67839 114.372 5.60677 114.477 5.55469H115.121L115.238 5.35938C115.277 5.29427 115.303 5.22266 115.316 5.14453C115.46 5.10547 115.596 5.05339 115.727 4.98828C115.87 4.91016 116 4.83203 116.117 4.75391C116.299 4.64974 116.462 4.55859 116.605 4.48047C116.762 4.38932 116.911 4.31771 117.055 4.26562C117.211 4.20052 117.374 4.14844 117.543 4.10938C117.712 4.07031 117.908 4.03776 118.129 4.01172C118.233 4.01172 118.298 3.99219 118.324 3.95312C118.363 3.91406 118.415 3.86849 118.48 3.81641C118.637 3.84245 118.793 3.86849 118.949 3.89453C119.105 3.90755 119.262 3.91406 119.418 3.91406C119.73 3.91406 120.023 3.85547 120.297 3.73828C120.688 3.73828 121.072 3.73177 121.449 3.71875C121.84 3.70573 122.23 3.69922 122.621 3.69922C122.96 3.69922 123.298 3.71224 123.637 3.73828C123.975 3.76432 124.307 3.8099 124.633 3.875C124.75 3.83594 124.88 3.81641 125.023 3.81641C125.18 3.81641 125.336 3.83594 125.492 3.875C125.661 3.90104 125.824 3.90104 125.98 3.875C125.993 4.01823 126.026 4.14193 126.078 4.24609C126.143 4.33724 126.176 4.44792 126.176 4.57812Z" fill="black"/>
<path d="M112.562 7.87891C112.51 8.00911 112.458 8.13281 112.406 8.25C112.354 8.36719 112.315 8.4974 112.289 8.64062C112.198 8.70573 112.094 8.75781 111.977 8.79688C111.872 8.82292 111.762 8.85547 111.645 8.89453C111.527 8.92057 111.417 8.95964 111.312 9.01172C111.221 9.05078 111.15 9.11589 111.098 9.20703C111.059 9.40234 111.039 9.58464 111.039 9.75391C111.039 9.97526 111.078 10.1641 111.156 10.3203C111.117 10.4375 111.091 10.5612 111.078 10.6914C111.065 10.8216 111.059 10.9453 111.059 11.0625C111.059 11.4922 111.111 11.9219 111.215 12.3516C111.319 12.7682 111.378 13.1914 111.391 13.6211C111.391 13.6862 111.384 13.7578 111.371 13.8359C111.358 13.9141 111.352 13.9857 111.352 14.0508C111.352 14.3242 111.456 14.5065 111.664 14.5977C111.625 14.6628 111.605 14.7214 111.605 14.7734C111.605 14.8776 111.618 14.9688 111.645 15.0469C111.671 15.125 111.677 15.2096 111.664 15.3008C111.729 15.431 111.794 15.5482 111.859 15.6523C111.924 15.7435 111.97 15.8607 111.996 16.0039C111.905 16.1862 111.794 16.3555 111.664 16.5117C111.534 16.6549 111.443 16.8372 111.391 17.0586C111.339 17.0456 111.28 17.0391 111.215 17.0391C111.124 17.0391 111.052 17.0586 111 17.0977C110.948 17.1367 110.902 17.1823 110.863 17.2344C110.837 17.2995 110.805 17.3581 110.766 17.4102C110.727 17.4753 110.674 17.5208 110.609 17.5469H110.551C110.486 17.5599 110.427 17.5534 110.375 17.5273C110.336 17.5143 110.297 17.5078 110.258 17.5078C110.232 17.5078 110.18 17.5208 110.102 17.5469C109.997 17.4167 109.926 17.2604 109.887 17.0781C109.848 16.9089 109.828 16.7396 109.828 16.5703C109.828 16.388 109.854 16.2253 109.906 16.082C109.763 15.9648 109.672 15.7891 109.633 15.5547C109.607 15.3203 109.574 15.125 109.535 14.9688C109.431 14.487 109.307 14.0182 109.164 13.5625C109.034 13.1068 108.956 12.638 108.93 12.1562C108.917 11.974 108.91 11.7982 108.91 11.6289V10.6133C108.91 10.444 108.917 10.2812 108.93 10.125C108.93 10.0078 108.936 9.89714 108.949 9.79297C108.975 9.67578 108.988 9.55859 108.988 9.44141C108.988 9.28516 108.936 9.13542 108.832 8.99219C107.908 9.03125 107.029 9.20052 106.195 9.5C105.375 9.78646 104.555 10.1315 103.734 10.5352C103.682 10.8346 103.65 11.1276 103.637 11.4141C103.624 11.7005 103.617 11.9935 103.617 12.293V13.1523C103.617 13.4779 103.63 13.7513 103.656 13.9727C103.721 14.3503 103.91 14.6432 104.223 14.8516C104.548 15.0469 104.874 15.1966 105.199 15.3008C105.186 15.4961 105.147 15.6654 105.082 15.8086C105.017 15.9388 104.932 16.0625 104.828 16.1797C104.737 16.2839 104.633 16.388 104.516 16.4922C104.398 16.5964 104.281 16.7135 104.164 16.8438C104.06 16.7786 103.956 16.7331 103.852 16.707C103.747 16.681 103.637 16.668 103.52 16.668C103.402 16.6549 103.285 16.6419 103.168 16.6289C103.051 16.6159 102.934 16.5898 102.816 16.5508L102.387 15.9648C102.243 15.7695 102.087 15.5742 101.918 15.3789V15.2031C101.918 14.8516 101.853 14.513 101.723 14.1875C101.592 13.862 101.495 13.5299 101.43 13.1914C101.469 13.0742 101.495 12.957 101.508 12.8398C101.521 12.7227 101.527 12.599 101.527 12.4688C101.527 12.2083 101.514 11.9544 101.488 11.707C101.475 11.4596 101.482 11.2122 101.508 10.9648H101.41C101.293 10.9648 101.169 10.9974 101.039 11.0625C100.909 11.1146 100.779 11.1797 100.648 11.2578C100.531 11.3229 100.414 11.388 100.297 11.4531C100.193 11.5052 100.102 11.5312 100.023 11.5312C99.9844 11.5312 99.9453 11.5247 99.9062 11.5117C99.8672 11.4987 99.8216 11.4922 99.7695 11.4922C99.7044 11.4922 99.6263 11.5182 99.5352 11.5703C99.444 11.6224 99.3464 11.681 99.2422 11.7461C99.125 11.7982 99.0078 11.8503 98.8906 11.9023C98.7734 11.9544 98.6562 11.9805 98.5391 11.9805C98.3568 11.9805 98.1745 11.9023 97.9922 11.7461C97.9661 11.6419 97.9596 11.5443 97.9727 11.4531C97.9727 11.362 97.9727 11.2643 97.9727 11.1602C97.9727 11.056 97.9531 10.9453 97.9141 10.8281C98.0052 10.6589 98.1289 10.5286 98.2852 10.4375C98.4284 10.3333 98.5846 10.2422 98.7539 10.1641C98.9102 10.0729 99.0729 9.98828 99.2422 9.91016C99.4115 9.81901 99.5547 9.70182 99.6719 9.55859H99.7891C99.9714 9.55859 100.134 9.51953 100.277 9.44141C100.434 9.36328 100.609 9.33073 100.805 9.34375C100.87 9.31771 100.915 9.22005 100.941 9.05078L101.02 9.07031C101.306 9.07031 101.56 8.97266 101.781 8.77734C101.924 7.97005 102.042 7.15625 102.133 6.33594C102.224 5.51562 102.27 4.69531 102.27 3.875C102.27 3.79688 102.243 3.71875 102.191 3.64062C102.165 3.53646 102.152 3.4388 102.152 3.34766V3.05469C102.152 2.91146 102.159 2.76172 102.172 2.60547C102.185 2.44922 102.217 2.29297 102.27 2.13672C102.4 2.05859 102.536 2.01953 102.68 2.01953C102.849 2.01953 103.012 2.04557 103.168 2.09766C103.337 2.13672 103.5 2.16927 103.656 2.19531C103.773 2.3125 103.858 2.44271 103.91 2.58594C103.975 2.72917 104.014 2.87891 104.027 3.03516C104.04 3.17839 104.04 3.32812 104.027 3.48438C104.027 3.6276 104.027 3.77083 104.027 3.91406C104.027 4.20052 104.06 4.48047 104.125 4.75391C104.19 5.02734 104.223 5.29427 104.223 5.55469C104.223 5.61979 104.197 5.67188 104.145 5.71094C104.105 5.73698 104.086 5.82161 104.086 5.96484C104.086 6.10807 104.099 6.25781 104.125 6.41406C104.151 6.57031 104.164 6.72656 104.164 6.88281C104.164 7.0651 104.138 7.25391 104.086 7.44922C104.034 7.64453 103.988 7.83333 103.949 8.01562C104.73 7.95052 105.531 7.85286 106.352 7.72266C107.172 7.59245 107.953 7.38411 108.695 7.09766C108.708 7.07161 108.715 7.03255 108.715 6.98047C108.715 6.90234 108.708 6.82422 108.695 6.74609C108.682 6.66797 108.676 6.58333 108.676 6.49219C108.676 6.33594 108.728 6.21224 108.832 6.12109C108.767 5.75651 108.721 5.39193 108.695 5.02734C108.669 4.66276 108.656 4.29818 108.656 3.93359V2.82031C108.656 2.45573 108.65 2.09115 108.637 1.72656C108.741 1.66146 108.852 1.62891 108.969 1.62891C109.112 1.62891 109.242 1.66797 109.359 1.74609C109.49 1.8112 109.639 1.84375 109.809 1.84375C109.926 1.84375 110.023 1.82422 110.102 1.78516C110.245 1.91536 110.342 2.08464 110.395 2.29297C110.447 2.5013 110.492 2.71615 110.531 2.9375C110.57 3.15885 110.609 3.38021 110.648 3.60156C110.701 3.8099 110.798 3.97917 110.941 4.10938L110.961 4.16797C110.961 4.22005 110.935 4.25911 110.883 4.28516C110.831 4.3112 110.805 4.36328 110.805 4.44141V4.51953C110.857 4.72786 110.896 4.94271 110.922 5.16406C110.948 5.38542 110.967 5.61328 110.98 5.84766C111.007 6.06901 111.039 6.29036 111.078 6.51172C111.117 6.72005 111.189 6.91536 111.293 7.09766C111.358 7.08464 111.443 7.07812 111.547 7.07812C111.807 7.07812 112.009 7.16927 112.152 7.35156C112.309 7.52083 112.445 7.69661 112.562 7.87891Z" fill="black"/>
<path d="M103.109 4.44141C103.057 4.61068 102.973 4.76693 102.855 4.91016L102.523 5.32031C102.419 5.45052 102.328 5.59375 102.25 5.75C102.185 5.89323 102.165 6.0625 102.191 6.25781C102.165 6.25781 102.133 6.25781 102.094 6.25781C102.055 6.24479 102.022 6.23828 101.996 6.23828C101.788 6.23828 101.625 6.29036 101.508 6.39453C101.404 6.48568 101.26 6.5638 101.078 6.62891C101.052 6.55078 101.02 6.47917 100.98 6.41406C100.941 6.33594 100.883 6.28385 100.805 6.25781C100.492 6.32292 100.18 6.375 99.8672 6.41406C99.5547 6.4401 99.2422 6.47917 98.9297 6.53125C98.7865 6.55729 98.6432 6.59635 98.5 6.64844C98.3568 6.6875 98.207 6.72656 98.0508 6.76562C97.9727 6.79167 97.888 6.80469 97.7969 6.80469C97.7057 6.79167 97.6146 6.79167 97.5234 6.80469C97.2109 6.81771 96.8724 6.84375 96.5078 6.88281C96.1432 6.90885 95.8177 7.00651 95.5312 7.17578C95.401 7.14974 95.2643 7.13021 95.1211 7.11719C94.9779 7.10417 94.8346 7.09766 94.6914 7.09766C94.3789 7.09766 94.0339 7.13021 93.6562 7.19531C93.2917 7.2474 92.9661 7.35807 92.6797 7.52734C92.6146 7.5013 92.543 7.48177 92.4648 7.46875C92.3997 7.45573 92.3216 7.44922 92.2305 7.44922C92.2044 7.44922 92.1849 7.45573 92.1719 7.46875C92.1589 7.46875 92.1393 7.46875 92.1133 7.46875C92.1003 7.58594 92.1133 7.70312 92.1523 7.82031C92.2044 7.92448 92.2891 8.00911 92.4062 8.07422C92.3542 8.21745 92.3281 8.3737 92.3281 8.54297C92.3281 8.76432 92.3411 8.98568 92.3672 9.20703C92.4062 9.42839 92.4258 9.64974 92.4258 9.87109C92.4258 10.1185 92.3932 10.3138 92.3281 10.457C92.4583 10.8477 92.5234 11.2643 92.5234 11.707C92.5234 11.8633 92.5104 12.0195 92.4844 12.1758C92.4714 12.319 92.4648 12.4753 92.4648 12.6445C92.4648 12.7878 92.5169 12.9049 92.6211 12.9961C92.7253 13.0742 92.7773 13.1849 92.7773 13.3281C92.7773 13.3802 92.7643 13.4323 92.7383 13.4844C92.9206 13.4453 93.0964 13.3932 93.2656 13.3281C93.4349 13.25 93.6107 13.2109 93.793 13.2109C93.8971 13.2109 93.9948 13.2305 94.0859 13.2695C94.1901 13.3086 94.2812 13.3607 94.3594 13.4258C94.3464 13.4909 94.3333 13.5625 94.3203 13.6406C94.3203 13.7188 94.3203 13.7969 94.3203 13.875C94.3203 14.0182 94.3203 14.1549 94.3203 14.2852C94.3333 14.4023 94.3464 14.5326 94.3594 14.6758C94.2552 14.8581 94.1315 15.0208 93.9883 15.1641C93.8581 15.3073 93.7669 15.4896 93.7148 15.7109C93.5195 15.7109 93.3438 15.7565 93.1875 15.8477C93.0443 15.9258 92.9076 16.0169 92.7773 16.1211C92.6471 16.2122 92.5169 16.3034 92.3867 16.3945C92.2565 16.4727 92.1133 16.5117 91.957 16.5117C91.7617 16.5117 91.625 16.4857 91.5469 16.4336C91.4688 16.3685 91.4102 16.3034 91.3711 16.2383C91.332 16.1732 91.293 16.1146 91.2539 16.0625C91.2279 16.0104 91.1628 15.9909 91.0586 16.0039C91.0326 15.8346 90.9805 15.6784 90.9023 15.5352C90.8242 15.3789 90.7396 15.2292 90.6484 15.0859C90.5703 14.9427 90.4857 14.7995 90.3945 14.6562C90.3164 14.5 90.2578 14.3438 90.2188 14.1875C90.1406 13.849 90.1081 13.4974 90.1211 13.1328C90.1341 12.7682 90.0755 12.4167 89.9453 12.0781C89.9714 11.8958 89.9909 11.7135 90.0039 11.5312C90.0169 11.3359 90.0234 11.1471 90.0234 10.9648C90.0234 10.6003 90.0104 10.2422 89.9844 9.89062C89.9714 9.52604 89.9583 9.15495 89.9453 8.77734C89.8542 8.66016 89.7956 8.52995 89.7695 8.38672C89.7565 8.23047 89.7435 8.08073 89.7305 7.9375C89.6914 7.89844 89.6458 7.85938 89.5938 7.82031C89.5547 7.78125 89.5286 7.72917 89.5156 7.66406C89.4115 7.63802 89.3333 7.625 89.2812 7.625C89.099 7.625 88.9427 7.67057 88.8125 7.76172C88.6953 7.83984 88.5846 7.87891 88.4805 7.87891C88.3763 7.87891 88.2786 7.86589 88.1875 7.83984C88.0964 7.8138 88.0052 7.80078 87.9141 7.80078C87.8359 7.80078 87.7904 7.82031 87.7773 7.85938C87.7773 7.88542 87.7513 7.91146 87.6992 7.9375C87.6602 7.96354 87.569 7.98958 87.4258 8.01562C87.2826 8.04167 87.1198 8.06771 86.9375 8.09375C86.7682 8.10677 86.599 8.11979 86.4297 8.13281C86.2734 8.14583 86.1693 8.15234 86.1172 8.15234C85.9089 8.15234 85.7526 8.11328 85.6484 8.03516C85.5312 7.94401 85.3945 7.84635 85.2383 7.74219C85.2643 7.66406 85.2773 7.61198 85.2773 7.58594C85.2773 7.45573 85.2383 7.35156 85.1602 7.27344C85.082 7.18229 85.043 7.10417 85.043 7.03906C85.043 6.89583 85.1016 6.78516 85.2188 6.70703C85.3229 6.62891 85.3815 6.50521 85.3945 6.33594C85.694 6.20573 86 6.10807 86.3125 6.04297C86.625 5.97786 86.944 5.92578 87.2695 5.88672C87.5951 5.84766 87.9141 5.80208 88.2266 5.75C88.5521 5.69792 88.8711 5.61328 89.1836 5.49609C89.2747 5.50911 89.3594 5.52214 89.4375 5.53516C89.5286 5.53516 89.6198 5.53516 89.7109 5.53516C90.1016 5.53516 90.4857 5.49609 90.8633 5.41797C91.2539 5.32682 91.651 5.28125 92.0547 5.28125C92.1589 5.28125 92.263 5.28776 92.3672 5.30078C92.4714 5.3138 92.5755 5.33333 92.6797 5.35938C93.2005 5.28125 93.7148 5.19661 94.2227 5.10547C94.7435 5.01432 95.2773 4.9362 95.8242 4.87109C96.0846 4.84505 96.3385 4.82552 96.5859 4.8125C96.8464 4.78646 97.1068 4.75391 97.3672 4.71484C97.4583 4.70182 97.5234 4.68229 97.5625 4.65625C97.6146 4.61719 97.6406 4.54557 97.6406 4.44141C97.7578 4.49349 97.888 4.51953 98.0312 4.51953C98.2526 4.51953 98.4674 4.48047 98.6758 4.40234C98.8841 4.32422 99.099 4.28516 99.3203 4.28516C99.3724 4.28516 99.418 4.29167 99.457 4.30469C99.4961 4.30469 99.5352 4.30469 99.5742 4.30469C99.6654 4.30469 99.7109 4.26562 99.7109 4.1875C99.724 4.09635 99.7891 4.03776 99.9062 4.01172C99.9974 3.98568 100.128 3.96615 100.297 3.95312C100.466 3.9401 100.642 3.92708 100.824 3.91406C101.02 3.88802 101.195 3.86198 101.352 3.83594C101.521 3.79688 101.645 3.74479 101.723 3.67969L101.859 3.46484C102.094 3.47786 102.263 3.58203 102.367 3.77734C102.484 3.95964 102.549 4.16146 102.562 4.38281C102.615 4.4349 102.686 4.46094 102.777 4.46094C102.882 4.44792 102.973 4.44141 103.051 4.44141H103.109Z" fill="black"/>
<path d="M79.2422 4.38281C79.2422 4.46094 79.2031 4.52604 79.125 4.57812C79.0599 4.63021 78.9818 4.68229 78.8906 4.73438C78.8125 4.78646 78.7279 4.84505 78.6367 4.91016C78.5586 4.97526 78.5065 5.05339 78.4805 5.14453H78.3047C78.2266 5.14453 78.1875 5.17057 78.1875 5.22266H78.1289C78.0117 5.22266 77.9336 5.1901 77.8945 5.125C77.8555 5.04688 77.7708 5.00781 77.6406 5.00781C77.3151 5.00781 76.9896 5.01432 76.6641 5.02734C76.3516 5.02734 76.0326 5.03385 75.707 5.04688C74.8086 5.04688 73.9232 5.07943 73.0508 5.14453C72.1914 5.19661 71.3385 5.37891 70.4922 5.69141C70.4661 5.70443 70.4336 5.71094 70.3945 5.71094C70.3294 5.71094 70.2904 5.6849 70.2773 5.63281C70.2773 5.58073 70.2448 5.55469 70.1797 5.55469C69.9974 5.55469 69.8281 5.57422 69.6719 5.61328C69.5156 5.65234 69.3464 5.67839 69.1641 5.69141C68.9557 5.8737 68.7148 6.02344 68.4414 6.14062C68.181 6.25781 67.9076 6.375 67.6211 6.49219C67.3477 6.59635 67.0807 6.71354 66.8203 6.84375C66.5599 6.96094 66.332 7.11719 66.1367 7.3125C66.1628 7.46875 66.1823 7.625 66.1953 7.78125C66.2214 7.92448 66.2344 8.06771 66.2344 8.21094C66.2344 8.77083 66.1823 9.32422 66.0781 9.87109C65.974 10.4049 65.9219 10.9453 65.9219 11.4922V11.7852C65.9219 11.8763 65.9284 11.974 65.9414 12.0781C65.9674 12.1432 66.013 12.1888 66.0781 12.2148C66.1562 12.2279 66.2214 12.2539 66.2734 12.293C66.4427 12.1758 66.612 12.0846 66.7812 12.0195C66.9635 11.9414 67.1458 11.8698 67.3281 11.8047C67.5234 11.7266 67.7057 11.6549 67.875 11.5898C68.0573 11.5117 68.2331 11.4206 68.4023 11.3164H68.9492C69.0924 11.2122 69.2617 11.1341 69.457 11.082C69.6523 11.0299 69.7826 10.9128 69.8477 10.7305C69.8737 10.7565 69.8997 10.7695 69.9258 10.7695H70.0039C70.1602 10.7695 70.3164 10.737 70.4727 10.6719C70.6419 10.6068 70.8112 10.5417 70.9805 10.4766C71.1497 10.3984 71.319 10.3268 71.4883 10.2617C71.6576 10.1966 71.8333 10.1641 72.0156 10.1641C72.0547 10.1641 72.0872 10.1706 72.1133 10.1836C72.1523 10.1836 72.1914 10.1836 72.2305 10.1836C72.3086 10.0534 72.4193 9.95573 72.5625 9.89062C72.7057 9.8125 72.8555 9.7474 73.0117 9.69531C73.168 9.64323 73.3242 9.59115 73.4805 9.53906C73.6497 9.48698 73.793 9.42188 73.9102 9.34375H73.9883C74.0664 9.34375 74.125 9.36328 74.1641 9.40234C74.2161 9.42839 74.2747 9.45443 74.3398 9.48047C74.7044 9.24609 75.0755 9.12891 75.4531 9.12891C75.8438 9.11589 76.2474 9.08984 76.6641 9.05078C76.7552 9.20703 76.8333 9.33724 76.8984 9.44141C76.9766 9.53255 77.0156 9.66927 77.0156 9.85156C77.0156 9.94271 77.0091 10.0078 76.9961 10.0469C76.8529 10.099 76.7422 10.1445 76.6641 10.1836L76.4492 10.3008C76.3841 10.3268 76.306 10.3529 76.2148 10.3789C76.1237 10.3919 75.9935 10.3984 75.8242 10.3984C75.7201 10.3984 75.6745 10.431 75.6875 10.4961C75.7005 10.5482 75.668 10.5807 75.5898 10.5938C75.4076 10.6589 75.2253 10.7109 75.043 10.75C74.8607 10.7891 74.6784 10.8411 74.4961 10.9062C74.1185 11.0234 73.7409 11.1536 73.3633 11.2969C72.9987 11.4271 72.6211 11.5312 72.2305 11.6094C71.9049 11.8698 71.5534 12.0846 71.1758 12.2539C70.7982 12.4102 70.4076 12.5404 70.0039 12.6445C69.5742 12.957 69.151 13.25 68.7344 13.5234C68.3177 13.7839 67.849 14.0052 67.3281 14.1875C67.263 14.2526 67.1849 14.3112 67.0938 14.3633C67.0026 14.4154 66.944 14.4935 66.918 14.5977C66.8919 14.5977 66.8594 14.5977 66.8203 14.5977C66.7943 14.5846 66.7617 14.5781 66.7227 14.5781C66.5404 14.5781 66.3971 14.6237 66.293 14.7148C66.2018 14.793 66.0846 14.8451 65.9414 14.8711C65.8763 15.0664 65.8438 15.2357 65.8438 15.3789C65.8438 15.5612 65.8763 15.724 65.9414 15.8672C66.0065 16.0104 66.0846 16.1471 66.1758 16.2773C66.2799 16.4076 66.3841 16.5378 66.4883 16.668C66.6055 16.7852 66.7031 16.9154 66.7812 17.0586C66.7552 17.2148 66.7031 17.3385 66.625 17.4297C66.5599 17.5339 66.4818 17.625 66.3906 17.7031C66.2995 17.7943 66.2083 17.8854 66.1172 17.9766C66.0391 18.0677 65.9805 18.1849 65.9414 18.3281C65.707 18.3672 65.4792 18.3867 65.2578 18.3867C65.1146 18.3867 64.9648 18.3672 64.8086 18.3281C64.6654 18.3021 64.5286 18.25 64.3984 18.1719C64.1901 17.8854 64.0404 17.5794 63.9492 17.2539C63.8711 16.9284 63.7604 16.6029 63.6172 16.2773L63.6367 16.1406C63.6367 15.8542 63.5846 15.6068 63.4805 15.3984C63.3893 15.1771 63.2461 14.9557 63.0508 14.7344C63.0638 14.7083 63.0703 14.6628 63.0703 14.5977C63.0703 14.4284 63.0182 14.2721 62.9141 14.1289C62.9401 13.8294 63.0182 13.5951 63.1484 13.4258C63.2917 13.2565 63.4479 13.0677 63.6172 12.8594V12.625C63.6172 12.0651 63.6628 11.5182 63.7539 10.9844C63.8581 10.4375 63.9102 9.89062 63.9102 9.34375C63.9102 9.00521 63.8841 8.70573 63.832 8.44531C63.793 8.43229 63.7409 8.42578 63.6758 8.42578C63.6107 8.42578 63.5586 8.44531 63.5195 8.48438C63.4805 8.51042 63.4479 8.54297 63.4219 8.58203C63.3958 8.62109 63.3633 8.66016 63.3242 8.69922C63.2982 8.73828 63.2526 8.76432 63.1875 8.77734C62.9661 8.73828 62.8229 8.63411 62.7578 8.46484C62.6927 8.29557 62.6602 8.10677 62.6602 7.89844C62.6602 7.78125 62.6667 7.66406 62.6797 7.54688C62.6927 7.42969 62.7057 7.30599 62.7188 7.17578C63.2135 6.62891 63.806 6.12109 64.4961 5.65234C65.1862 5.18359 65.8698 4.80599 66.5469 4.51953C66.5859 4.50651 66.6315 4.5 66.6836 4.5C66.7357 4.5 66.7812 4.51302 66.8203 4.53906C66.8594 4.55208 66.9049 4.55859 66.957 4.55859C66.9961 4.55859 67.0286 4.54557 67.0547 4.51953C67.1849 4.51953 67.276 4.48047 67.3281 4.40234C67.3802 4.32422 67.4518 4.24609 67.543 4.16797C67.6341 4.23307 67.7122 4.26562 67.7773 4.26562C67.9076 4.26562 68.0378 4.20703 68.168 4.08984C68.2982 3.97266 68.4414 3.90104 68.5977 3.875C69.1966 3.77083 69.7826 3.6862 70.3555 3.62109C70.9414 3.55599 71.5208 3.40625 72.0938 3.17188C72.224 3.23698 72.3542 3.27604 72.4844 3.28906C72.6146 3.30208 72.7448 3.30859 72.875 3.30859C73.0182 3.30859 73.1745 3.29557 73.3438 3.26953C73.526 3.23047 73.6693 3.15234 73.7734 3.03516C74.1901 3.08724 74.6328 3.10677 75.1016 3.09375C75.5833 3.08073 76.0586 3.08724 76.5273 3.11328C77.0091 3.13932 77.4714 3.20443 77.9141 3.30859C78.3568 3.41276 78.7474 3.60156 79.0859 3.875C79.112 3.96615 79.1445 4.05078 79.1836 4.12891C79.2227 4.20703 79.2422 4.29167 79.2422 4.38281Z" fill="black"/>
<path d="M61.7617 5.69141C61.6836 5.80859 61.638 5.9388 61.625 6.08203C61.612 6.22526 61.6055 6.35547 61.6055 6.47266C61.6055 6.62891 61.6055 6.78516 61.6055 6.94141C61.6185 7.08464 61.625 7.22786 61.625 7.37109V7.66406C61.599 7.75521 61.5599 7.84635 61.5078 7.9375C61.4557 8.02865 61.4167 8.11979 61.3906 8.21094C61.2083 8.69271 61.1172 9.17448 61.1172 9.65625V9.69531C61.0521 9.85156 60.987 9.99479 60.9219 10.125C60.8698 10.2552 60.8177 10.3854 60.7656 10.5156C60.7135 10.6328 60.6745 10.763 60.6484 10.9062C60.6224 11.0365 60.6159 11.1927 60.6289 11.375C60.4466 11.8307 60.2057 12.2474 59.9062 12.625C59.6068 12.9896 59.3138 13.3672 59.0273 13.7578C58.7539 13.862 58.5 13.9987 58.2656 14.168C58.0443 14.3372 57.8294 14.526 57.6211 14.7344C57.2174 14.8646 56.8203 15.0143 56.4297 15.1836C56.0391 15.3529 55.6875 15.5807 55.375 15.8672C55.1276 15.8932 54.8802 15.9323 54.6328 15.9844C54.3854 16.0365 54.1445 16.1146 53.9102 16.2188H53.6758C53.5586 16.2188 53.474 16.1927 53.4219 16.1406C53.2526 16.2318 53.0768 16.2969 52.8945 16.3359C52.7122 16.362 52.5299 16.375 52.3477 16.375C52.1133 16.375 51.8789 16.362 51.6445 16.3359C51.4232 16.2969 51.1953 16.2578 50.9609 16.2188C50.8307 16.0365 50.6484 15.8997 50.4141 15.8086C50.1797 15.7044 49.9714 15.6068 49.7891 15.5156C49.4115 14.9948 49.138 14.4935 48.9688 14.0117C48.7995 13.5169 48.6237 12.9635 48.4414 12.3516C48.4674 12.1693 48.513 11.9935 48.5781 11.8242C48.6432 11.6419 48.6693 11.4466 48.6562 11.2383C48.8906 10.5612 49.1966 9.94922 49.5742 9.40234C49.9648 8.84245 50.4076 8.30859 50.9023 7.80078C50.9023 7.72266 50.9154 7.65755 50.9414 7.60547C50.9805 7.55339 50.987 7.47526 50.9609 7.37109C50.974 7.38411 51 7.39062 51.0391 7.39062C51.1432 7.39062 51.2083 7.36458 51.2344 7.3125C51.2604 7.2474 51.2669 7.17578 51.2539 7.09766C51.7227 6.79818 52.1458 6.45312 52.5234 6.0625C52.9141 5.67188 53.3568 5.34635 53.8516 5.08594C53.8906 4.96875 53.9557 4.87109 54.0469 4.79297C54.138 4.71484 54.2096 4.6237 54.2617 4.51953C54.6784 4.40234 55.056 4.22656 55.3945 3.99219C55.7331 3.75781 56.0911 3.54948 56.4688 3.36719C56.6771 3.25 56.8724 3.17188 57.0547 3.13281C57.25 3.08073 57.4583 3.02865 57.6797 2.97656C57.7578 2.95052 57.8294 2.93099 57.8945 2.91797C57.9596 2.90495 58.0312 2.89844 58.1094 2.89844C58.3438 2.89844 58.5716 2.94401 58.793 3.03516C59.0143 3.11328 59.2422 3.15234 59.4766 3.15234C59.5417 3.15234 59.5938 3.15234 59.6328 3.15234C59.6849 3.13932 59.737 3.1263 59.7891 3.11328C60.0104 3.38672 60.2904 3.59505 60.6289 3.73828C60.707 3.93359 60.7982 4.10286 60.9023 4.24609C61.0195 4.38932 61.1367 4.53255 61.2539 4.67578C61.3711 4.80599 61.4753 4.95573 61.5664 5.125C61.6706 5.28125 61.7357 5.47005 61.7617 5.69141ZM59.8086 6.70703C59.8086 6.64193 59.8021 6.58333 59.7891 6.53125C59.6589 6.49219 59.5352 6.4401 59.418 6.375C59.3008 6.3099 59.1706 6.27734 59.0273 6.27734C58.9362 6.27734 58.8451 6.29688 58.7539 6.33594C58.7409 6.24479 58.7018 6.17969 58.6367 6.14062C58.5846 6.10156 58.5195 6.06901 58.4414 6.04297C58.3763 6.00391 58.3047 5.97786 58.2266 5.96484C58.1615 5.9388 58.1029 5.89974 58.0508 5.84766C58.0117 5.74349 57.9661 5.63932 57.9141 5.53516C57.875 5.41797 57.7969 5.33333 57.6797 5.28125C57.5625 5.39844 57.4258 5.49609 57.2695 5.57422C57.1133 5.63932 56.9505 5.70443 56.7812 5.76953C56.625 5.83464 56.4688 5.91276 56.3125 6.00391C56.1693 6.09505 56.0456 6.20573 55.9414 6.33594H55.5898C55.5117 6.47917 55.401 6.58984 55.2578 6.66797C55.1146 6.73307 54.9909 6.83073 54.8867 6.96094C54.6784 7.0651 54.4831 7.19531 54.3008 7.35156C54.1315 7.49479 53.9622 7.65104 53.793 7.82031C53.6237 7.97656 53.4544 8.13932 53.2852 8.30859C53.1289 8.47786 52.9596 8.63411 52.7773 8.77734C52.6081 9.14193 52.4193 9.46094 52.2109 9.73438C52.0156 9.99479 51.8268 10.2617 51.6445 10.5352C51.4753 10.8086 51.3255 11.1081 51.1953 11.4336C51.0781 11.7461 51.0195 12.1367 51.0195 12.6055V12.8008C51.0195 12.8659 51.026 12.931 51.0391 12.9961C51.2083 13.1784 51.3451 13.3737 51.4492 13.582C51.5664 13.7904 51.7552 13.9401 52.0156 14.0312C52.276 14.1354 52.5495 14.181 52.8359 14.168C53.1354 14.1549 53.4219 14.1875 53.6953 14.2656C54.3203 14.1484 54.9193 13.9596 55.4922 13.6992C56.0781 13.4258 56.6315 13.1003 57.1523 12.7227C57.2305 12.6576 57.3216 12.5924 57.4258 12.5273C57.5299 12.4492 57.6146 12.3711 57.6797 12.293C57.7448 12.2279 57.7969 12.1562 57.8359 12.0781C57.888 12 57.9401 11.9284 57.9922 11.8633C58.0964 11.694 58.2135 11.5247 58.3438 11.3555C58.474 11.1862 58.6107 11.0299 58.7539 10.8867C58.819 10.6003 58.9036 10.3268 59.0078 10.0664C59.112 9.79297 59.2161 9.52604 59.3203 9.26562C59.4245 9.00521 59.5091 8.73828 59.5742 8.46484C59.6523 8.19141 59.6914 7.90495 59.6914 7.60547C59.6914 7.54036 59.6849 7.46875 59.6719 7.39062C59.6719 7.3125 59.6654 7.24089 59.6523 7.17578C59.7565 7.03255 59.8086 6.8763 59.8086 6.70703Z" fill="black"/>
<path d="M42.1328 4.57812V4.65625C42.0417 4.68229 41.9961 4.7474 41.9961 4.85156C41.8529 4.91667 41.7031 4.96875 41.5469 5.00781C41.3906 5.03385 41.2409 5.07943 41.0977 5.14453C40.9544 5.13151 40.8047 5.125 40.6484 5.125C40.5052 5.11198 40.362 5.10547 40.2188 5.10547C39.8281 5.10547 39.4375 5.11849 39.0469 5.14453C38.6562 5.17057 38.2656 5.17057 37.875 5.14453C37.6927 5.2487 37.4909 5.33333 37.2695 5.39844C37.0612 5.45052 36.8594 5.47656 36.6641 5.47656C36.5078 5.47656 36.3711 5.45703 36.2539 5.41797C35.9414 5.57422 35.5964 5.70443 35.2188 5.80859C34.8542 5.91276 34.4831 6.01693 34.1055 6.12109C33.7279 6.21224 33.3633 6.32292 33.0117 6.45312C32.6732 6.57031 32.3737 6.73958 32.1133 6.96094C32.0872 7.14323 32.0677 7.32552 32.0547 7.50781C32.0417 7.67708 32.0352 7.84635 32.0352 8.01562C32.0352 8.19792 32.0417 8.36719 32.0547 8.52344C32.0807 8.67969 32.1263 8.83594 32.1914 8.99219C32.2565 9.01823 32.3281 9.03776 32.4062 9.05078C32.4974 9.0638 32.5755 9.07031 32.6406 9.07031C32.7057 9.07031 32.7708 9.0638 32.8359 9.05078C32.901 9.02474 32.9466 8.97917 32.9727 8.91406C33.168 8.88802 33.3633 8.88151 33.5586 8.89453C33.7539 8.89453 33.9492 8.89453 34.1445 8.89453C34.3398 8.89453 34.5286 8.88802 34.7109 8.875C34.9062 8.86198 35.0951 8.82943 35.2773 8.77734C35.4857 8.72526 35.6875 8.69271 35.8828 8.67969C36.0911 8.66667 36.293 8.65365 36.4883 8.64062C36.6836 8.6276 36.8854 8.60807 37.0938 8.58203C37.3021 8.54297 37.5169 8.47135 37.7383 8.36719C37.9076 8.43229 38.0768 8.46484 38.2461 8.46484C38.4284 8.46484 38.6042 8.47786 38.7734 8.50391C38.8646 8.56901 38.9362 8.64062 38.9883 8.71875C39.0534 8.79688 39.0859 8.88802 39.0859 8.99219C39.0859 9.17448 39.0208 9.35677 38.8906 9.53906C38.7604 9.72135 38.6562 9.89062 38.5781 10.0469H38.3633C38.0508 10.0469 37.7448 10.0924 37.4453 10.1836C37.1589 10.2617 36.8659 10.3594 36.5664 10.4766C36.2799 10.5807 35.987 10.6784 35.6875 10.7695C35.401 10.8477 35.1016 10.8867 34.7891 10.8867C34.737 10.8867 34.7044 10.9193 34.6914 10.9844C34.6914 11.0365 34.6784 11.0755 34.6523 11.1016C34.5872 11.0885 34.4896 11.082 34.3594 11.082C34.0599 11.082 33.7734 11.1146 33.5 11.1797C33.2266 11.2448 32.9466 11.2773 32.6602 11.2773C32.582 11.2773 32.5039 11.2773 32.4258 11.2773C32.3477 11.2643 32.2695 11.2513 32.1914 11.2383C32.1263 11.3424 32.0417 11.4141 31.9375 11.4531C31.8333 11.4792 31.7357 11.5312 31.6445 11.6094C31.6055 11.7266 31.5794 11.8698 31.5664 12.0391C31.5664 12.2083 31.5599 12.3841 31.5469 12.5664C31.5469 12.7357 31.5339 12.8984 31.5078 13.0547C31.4818 13.2109 31.4297 13.3346 31.3516 13.4258C31.3646 13.4909 31.4167 13.5169 31.5078 13.5039C31.599 13.4779 31.6445 13.5169 31.6445 13.6211C31.6445 13.7383 31.6315 13.862 31.6055 13.9922C31.5794 14.1224 31.5664 14.2526 31.5664 14.3828C31.5664 14.6302 31.5924 14.9036 31.6445 15.2031C31.7096 15.4896 31.8008 15.7565 31.918 16.0039C32.0482 16.2513 32.2174 16.4596 32.4258 16.6289C32.6341 16.7852 32.8945 16.8633 33.207 16.8633C33.4154 16.8633 33.6107 16.8242 33.793 16.7461C33.9753 16.668 34.125 16.5378 34.2422 16.3555L34.3398 16.3359C34.3919 16.3359 34.4375 16.3424 34.4766 16.3555C34.5286 16.3685 34.5807 16.375 34.6328 16.375C34.7109 16.375 34.8086 16.3294 34.9258 16.2383C35.056 16.1341 35.1927 16.0169 35.3359 15.8867C35.4922 15.7565 35.6484 15.6328 35.8047 15.5156C35.9609 15.3854 36.1107 15.2943 36.2539 15.2422C36.3451 15.0599 36.4297 14.8776 36.5078 14.6953C36.599 14.513 36.7292 14.3698 36.8984 14.2656V13.6992C37.0286 13.556 37.1654 13.4258 37.3086 13.3086C37.4648 13.1914 37.582 13.0417 37.6602 12.8594C37.7253 12.8854 37.7839 12.9049 37.8359 12.918C37.901 12.931 37.9661 12.9375 38.0312 12.9375C38.0964 12.9375 38.1615 12.931 38.2266 12.918C38.3047 12.9049 38.3763 12.8854 38.4414 12.8594C38.5456 13.0026 38.6237 13.1654 38.6758 13.3477C38.7409 13.5169 38.819 13.6797 38.9102 13.8359C38.793 14.0703 38.6562 14.3503 38.5 14.6758C38.3438 15.0013 38.1745 15.3268 37.9922 15.6523C37.8099 15.9779 37.6146 16.2904 37.4062 16.5898C37.2109 16.8763 37.0156 17.0977 36.8203 17.2539C36.7812 17.293 36.6966 17.3385 36.5664 17.3906C36.4232 17.4948 36.293 17.5924 36.1758 17.6836C36.0586 17.7878 35.9479 17.9049 35.8438 18.0352C35.4661 18.1523 35.1016 18.3086 34.75 18.5039C34.4115 18.6992 34.0729 18.888 33.7344 19.0703C33.5781 19.0312 33.4089 19.0117 33.2266 19.0117C33.0703 19.0117 32.9141 19.0182 32.7578 19.0312C32.6016 19.0573 32.4323 19.0703 32.25 19.0703C32.1979 19.0052 32.1198 18.9596 32.0156 18.9336C31.9245 18.9206 31.8919 18.8555 31.918 18.7383C31.4753 18.7122 31.1172 18.5885 30.8438 18.3672C30.5703 18.1589 30.3359 17.8984 30.1406 17.5859C29.9583 17.2734 29.8086 16.9349 29.6914 16.5703C29.5742 16.2057 29.4505 15.8542 29.3203 15.5156V15.457C29.3203 15.3919 29.3464 15.3529 29.3984 15.3398C29.4505 15.3268 29.4766 15.2878 29.4766 15.2227C29.4766 15.1966 29.4701 15.1771 29.457 15.1641C29.418 15.0208 29.3854 14.8971 29.3594 14.793C29.3333 14.6888 29.3203 14.5651 29.3203 14.4219C29.3203 14.2135 29.3333 14.0117 29.3594 13.8164C29.3854 13.6081 29.3984 13.3997 29.3984 13.1914C29.3984 12.9831 29.3724 12.8008 29.3203 12.6445C29.3724 12.5794 29.418 12.4948 29.457 12.3906C29.4831 12.2734 29.5026 12.1562 29.5156 12.0391C29.5286 11.9219 29.5352 11.8047 29.5352 11.6875C29.5482 11.5703 29.5677 11.4661 29.5938 11.375C29.5417 11.2318 29.4961 11.1081 29.457 11.0039C29.418 10.8867 29.3984 10.75 29.3984 10.5938V10.457C29.5286 10.2357 29.6393 10.0078 29.7305 9.77344C29.8216 9.53906 29.9193 9.29818 30.0234 9.05078V8.99219C30.0234 8.61458 30.0104 8.23698 29.9844 7.85938C29.9583 7.48177 29.9453 7.10417 29.9453 6.72656V6.35547C29.9453 6.22526 29.9518 6.10156 29.9648 5.98438C30.069 5.93229 30.1471 5.86068 30.1992 5.76953C30.2513 5.67839 30.3294 5.60677 30.4336 5.55469H31.0781L31.1953 5.35938C31.2344 5.29427 31.2604 5.22266 31.2734 5.14453C31.4167 5.10547 31.5534 5.05339 31.6836 4.98828C31.8268 4.91016 31.957 4.83203 32.0742 4.75391C32.2565 4.64974 32.4193 4.55859 32.5625 4.48047C32.7188 4.38932 32.8685 4.31771 33.0117 4.26562C33.168 4.20052 33.3307 4.14844 33.5 4.10938C33.6693 4.07031 33.8646 4.03776 34.0859 4.01172C34.1901 4.01172 34.2552 3.99219 34.2812 3.95312C34.3203 3.91406 34.3724 3.86849 34.4375 3.81641C34.5938 3.84245 34.75 3.86849 34.9062 3.89453C35.0625 3.90755 35.2188 3.91406 35.375 3.91406C35.6875 3.91406 35.9805 3.85547 36.2539 3.73828C36.6445 3.73828 37.0286 3.73177 37.4062 3.71875C37.7969 3.70573 38.1875 3.69922 38.5781 3.69922C38.9167 3.69922 39.2552 3.71224 39.5938 3.73828C39.9323 3.76432 40.2643 3.8099 40.5898 3.875C40.707 3.83594 40.8372 3.81641 40.9805 3.81641C41.1367 3.81641 41.293 3.83594 41.4492 3.875C41.6185 3.90104 41.7812 3.90104 41.9375 3.875C41.9505 4.01823 41.9831 4.14193 42.0352 4.24609C42.1003 4.33724 42.1328 4.44792 42.1328 4.57812Z" fill="black"/>
<path d="M27.8164 4.16797C27.7904 4.32422 27.7513 4.46094 27.6992 4.57812C27.6602 4.68229 27.6536 4.82552 27.6797 5.00781C27.5495 5.02083 27.4453 5.06641 27.3672 5.14453C27.3021 5.20964 27.2435 5.28776 27.1914 5.37891C27.1523 5.47005 27.1068 5.56771 27.0547 5.67188C27.0156 5.76302 26.9635 5.84766 26.8984 5.92578C27.0026 6.39453 27.0612 6.86979 27.0742 7.35156C27.0872 7.83333 27.1198 8.30859 27.1719 8.77734C27.237 9.3763 27.3346 9.96875 27.4648 10.5547C27.6081 11.1276 27.6797 11.7135 27.6797 12.3125C27.6797 12.4948 27.6732 12.6641 27.6602 12.8203C27.6602 12.9766 27.6602 13.1393 27.6602 13.3086C27.6602 13.4128 27.6602 13.5234 27.6602 13.6406C27.6732 13.7448 27.6797 13.849 27.6797 13.9531C27.6797 14.3307 27.6276 14.7083 27.5234 15.0859C27.4323 15.4635 27.3607 15.8411 27.3086 16.2188C27.1523 16.362 27.0156 16.5182 26.8984 16.6875C26.7943 16.8568 26.6836 17.013 26.5664 17.1562C26.4492 17.2995 26.3125 17.4232 26.1562 17.5273C26 17.6445 25.8047 17.7227 25.5703 17.7617C25.5312 17.8919 25.4531 17.9896 25.3359 18.0547C25.2318 18.1198 25.1406 18.2109 25.0625 18.3281H25.0234C24.6979 18.3281 24.418 18.2826 24.1836 18.1914C23.9492 18.1003 23.7279 17.9961 23.5195 17.8789C23.3242 17.7617 23.1224 17.638 22.9141 17.5078C22.7057 17.3776 22.4648 17.2734 22.1914 17.1953C21.8268 16.8958 21.4948 16.5703 21.1953 16.2188C20.8958 15.8542 20.5573 15.5286 20.1797 15.2422C20.0885 14.9818 19.9648 14.7669 19.8086 14.5977C19.6654 14.4284 19.5221 14.2331 19.3789 14.0117C19.3138 13.9206 19.2617 13.8359 19.2227 13.7578C19.1966 13.6797 19.1576 13.5885 19.1055 13.4844C19.0664 13.3802 19.0013 13.3086 18.9102 13.2695C18.832 13.2305 18.7604 13.1849 18.6953 13.1328C18.5911 12.7292 18.4414 12.3581 18.2461 12.0195C18.0508 11.681 17.8229 11.3555 17.5625 11.043C17.4844 11.1862 17.4193 11.3424 17.3672 11.5117C17.3281 11.668 17.2891 11.8307 17.25 12C17.2109 12.1562 17.1589 12.319 17.0938 12.4883C17.0417 12.6445 16.9701 12.7878 16.8789 12.918V12.9766C16.8789 13.0417 16.9049 13.0807 16.957 13.0938C17.0091 13.1068 17.0352 13.1458 17.0352 13.2109C17.0352 13.224 17.0286 13.237 17.0156 13.25C17.0156 13.263 17.0156 13.276 17.0156 13.2891C16.9505 13.3411 16.8984 13.4062 16.8594 13.4844C16.8333 13.5625 16.7682 13.6081 16.6641 13.6211C16.6771 13.6862 16.6836 13.7513 16.6836 13.8164V13.9922C16.6836 14.3698 16.638 14.7474 16.5469 15.125C16.4688 15.5026 16.4297 15.8867 16.4297 16.2773V16.5312C16.4297 16.6224 16.4362 16.707 16.4492 16.7852C16.4753 16.8633 16.5143 16.9414 16.5664 17.0195C16.6185 17.0977 16.6445 17.1693 16.6445 17.2344C16.6445 17.3255 16.6055 17.4102 16.5273 17.4883C16.6185 17.5534 16.7227 17.625 16.8398 17.7031C16.957 17.7812 17.0612 17.8659 17.1523 17.957C17.2565 18.0612 17.3411 18.1654 17.4062 18.2695C17.4714 18.3867 17.5039 18.5104 17.5039 18.6406C17.5039 18.862 17.4323 19.0182 17.2891 19.1094C17.1458 19.2005 16.9701 19.2721 16.7617 19.3242C16.5664 19.3763 16.3581 19.4219 16.1367 19.4609C15.9284 19.513 15.7526 19.5977 15.6094 19.7148H15.5508C15.3945 19.7148 15.2773 19.6693 15.1992 19.5781C15.1211 19.487 15.0039 19.4414 14.8477 19.4414C14.6003 19.0378 14.431 18.582 14.3398 18.0742C14.2487 17.5794 14.2031 17.1042 14.2031 16.6484C14.2031 16.0885 14.2552 15.5286 14.3594 14.9688C14.4505 14.4089 14.5677 13.8555 14.7109 13.3086C14.8411 12.7617 14.9844 12.2214 15.1406 11.6875C15.3099 11.1406 15.4661 10.5938 15.6094 10.0469L15.6289 9.98828C15.6289 9.92318 15.6094 9.8776 15.5703 9.85156C15.5443 9.82552 15.5312 9.78646 15.5312 9.73438C15.5312 9.70833 15.5378 9.69531 15.5508 9.69531C15.5898 9.5651 15.6289 9.44141 15.668 9.32422C15.7201 9.20703 15.7591 9.07682 15.7852 8.93359C15.8633 8.56901 15.9154 8.19792 15.9414 7.82031C15.9805 7.42969 16 7.04557 16 6.66797C16.013 6.29036 16.026 5.91276 16.0391 5.53516C16.0651 5.14453 16.1107 4.76042 16.1758 4.38281C16.2799 4.27865 16.3776 4.16797 16.4688 4.05078C16.5599 3.93359 16.6771 3.82943 16.8203 3.73828C17.0807 3.7513 17.3411 3.79036 17.6016 3.85547C17.862 3.92057 18.1094 4.02474 18.3438 4.16797C18.5 4.72786 18.6042 5.28776 18.6562 5.84766C18.7214 6.40755 18.8255 6.96745 18.9688 7.52734V7.58594C18.9688 7.65104 19.0013 7.68359 19.0664 7.68359C19.1445 7.67057 19.2031 7.6901 19.2422 7.74219C19.2161 7.78125 19.1966 7.82682 19.1836 7.87891C19.1836 7.93099 19.1836 7.98307 19.1836 8.03516V8.36719C19.2096 8.47135 19.2422 8.58203 19.2812 8.69922C19.3203 8.81641 19.4049 8.88802 19.5352 8.91406C19.6003 9.33073 19.6979 9.71484 19.8281 10.0664C19.9583 10.418 20.1081 10.7565 20.2773 11.082C20.4466 11.4076 20.6289 11.7331 20.8242 12.0586C21.0195 12.3711 21.2214 12.7031 21.4297 13.0547C21.7552 13.3021 22.0352 13.5885 22.2695 13.9141C22.5039 14.2266 22.7383 14.5326 22.9727 14.832C23.2201 15.1185 23.4935 15.3724 23.793 15.5938C24.1055 15.8151 24.5091 15.9518 25.0039 16.0039C25.069 15.9518 25.1146 15.8802 25.1406 15.7891L25.2383 15.5156C25.2773 15.4245 25.3164 15.3464 25.3555 15.2812C25.4076 15.2031 25.4792 15.1445 25.5703 15.1055C25.5964 14.7409 25.6224 14.3698 25.6484 13.9922C25.6875 13.6146 25.7721 13.2565 25.9023 12.918C25.8372 12.8008 25.8047 12.6576 25.8047 12.4883C25.8047 12.3581 25.8112 12.2344 25.8242 12.1172C25.8503 12 25.8633 11.8828 25.8633 11.7656C25.8633 11.5182 25.8112 11.3164 25.707 11.1602C25.707 11.069 25.7135 10.9779 25.7266 10.8867C25.7396 10.7826 25.7786 10.6849 25.8438 10.5938C25.7396 10.3333 25.6549 10.0599 25.5898 9.77344C25.5378 9.48698 25.5117 9.19401 25.5117 8.89453C25.5117 8.72526 25.5312 8.54948 25.5703 8.36719C25.4922 8.17188 25.4401 7.94401 25.4141 7.68359L25.3359 6.88281C25.3099 6.60938 25.2708 6.35547 25.2188 6.12109C25.1667 5.88672 25.069 5.69792 24.9258 5.55469C25.0039 5.4375 25.043 5.30078 25.043 5.14453C25.043 4.88411 25.0039 4.63672 24.9258 4.40234C24.8477 4.16797 24.8086 3.92057 24.8086 3.66016C24.8086 3.47786 24.8477 3.29557 24.9258 3.11328C25.2122 3.1263 25.4922 3.15885 25.7656 3.21094C26.0521 3.25 26.332 3.26953 26.6055 3.26953C26.6836 3.3737 26.7747 3.45833 26.8789 3.52344C26.9831 3.58854 27.0938 3.65365 27.2109 3.71875C27.3281 3.77083 27.4388 3.82943 27.543 3.89453C27.6602 3.95964 27.7513 4.05078 27.8164 4.16797Z" fill="black"/>
<path d="M13.6172 5.69141C13.5391 5.80859 13.4935 5.9388 13.4805 6.08203C13.4674 6.22526 13.4609 6.35547 13.4609 6.47266C13.4609 6.62891 13.4609 6.78516 13.4609 6.94141C13.474 7.08464 13.4805 7.22786 13.4805 7.37109V7.66406C13.4544 7.75521 13.4154 7.84635 13.3633 7.9375C13.3112 8.02865 13.2721 8.11979 13.2461 8.21094C13.0638 8.69271 12.9727 9.17448 12.9727 9.65625V9.69531C12.9076 9.85156 12.8424 9.99479 12.7773 10.125C12.7253 10.2552 12.6732 10.3854 12.6211 10.5156C12.569 10.6328 12.5299 10.763 12.5039 10.9062C12.4779 11.0365 12.4714 11.1927 12.4844 11.375C12.3021 11.8307 12.0612 12.2474 11.7617 12.625C11.4622 12.9896 11.1693 13.3672 10.8828 13.7578C10.6094 13.862 10.3555 13.9987 10.1211 14.168C9.89974 14.3372 9.6849 14.526 9.47656 14.7344C9.07292 14.8646 8.67578 15.0143 8.28516 15.1836C7.89453 15.3529 7.54297 15.5807 7.23047 15.8672C6.98307 15.8932 6.73568 15.9323 6.48828 15.9844C6.24089 16.0365 6 16.1146 5.76562 16.2188H5.53125C5.41406 16.2188 5.32943 16.1927 5.27734 16.1406C5.10807 16.2318 4.93229 16.2969 4.75 16.3359C4.56771 16.362 4.38542 16.375 4.20312 16.375C3.96875 16.375 3.73438 16.362 3.5 16.3359C3.27865 16.2969 3.05078 16.2578 2.81641 16.2188C2.6862 16.0365 2.50391 15.8997 2.26953 15.8086C2.03516 15.7044 1.82682 15.6068 1.64453 15.5156C1.26693 14.9948 0.99349 14.4935 0.824219 14.0117C0.654948 13.5169 0.479167 12.9635 0.296875 12.3516C0.322917 12.1693 0.36849 11.9935 0.433594 11.8242C0.498698 11.6419 0.52474 11.4466 0.511719 11.2383C0.746094 10.5612 1.05208 9.94922 1.42969 9.40234C1.82031 8.84245 2.26302 8.30859 2.75781 7.80078C2.75781 7.72266 2.77083 7.65755 2.79688 7.60547C2.83594 7.55339 2.84245 7.47526 2.81641 7.37109C2.82943 7.38411 2.85547 7.39062 2.89453 7.39062C2.9987 7.39062 3.0638 7.36458 3.08984 7.3125C3.11589 7.2474 3.1224 7.17578 3.10938 7.09766C3.57812 6.79818 4.0013 6.45312 4.37891 6.0625C4.76953 5.67188 5.21224 5.34635 5.70703 5.08594C5.74609 4.96875 5.8112 4.87109 5.90234 4.79297C5.99349 4.71484 6.0651 4.6237 6.11719 4.51953C6.53385 4.40234 6.91146 4.22656 7.25 3.99219C7.58854 3.75781 7.94661 3.54948 8.32422 3.36719C8.53255 3.25 8.72786 3.17188 8.91016 3.13281C9.10547 3.08073 9.3138 3.02865 9.53516 2.97656C9.61328 2.95052 9.6849 2.93099 9.75 2.91797C9.8151 2.90495 9.88672 2.89844 9.96484 2.89844C10.1992 2.89844 10.4271 2.94401 10.6484 3.03516C10.8698 3.11328 11.0977 3.15234 11.332 3.15234C11.3971 3.15234 11.4492 3.15234 11.4883 3.15234C11.5404 3.13932 11.5924 3.1263 11.6445 3.11328C11.8659 3.38672 12.1458 3.59505 12.4844 3.73828C12.5625 3.93359 12.6536 4.10286 12.7578 4.24609C12.875 4.38932 12.9922 4.53255 13.1094 4.67578C13.2266 4.80599 13.3307 4.95573 13.4219 5.125C13.526 5.28125 13.5911 5.47005 13.6172 5.69141ZM11.6641 6.70703C11.6641 6.64193 11.6576 6.58333 11.6445 6.53125C11.5143 6.49219 11.3906 6.4401 11.2734 6.375C11.1562 6.3099 11.026 6.27734 10.8828 6.27734C10.7917 6.27734 10.7005 6.29688 10.6094 6.33594C10.5964 6.24479 10.5573 6.17969 10.4922 6.14062C10.4401 6.10156 10.375 6.06901 10.2969 6.04297C10.2318 6.00391 10.1602 5.97786 10.082 5.96484C10.0169 5.9388 9.95833 5.89974 9.90625 5.84766C9.86719 5.74349 9.82161 5.63932 9.76953 5.53516C9.73047 5.41797 9.65234 5.33333 9.53516 5.28125C9.41797 5.39844 9.28125 5.49609 9.125 5.57422C8.96875 5.63932 8.80599 5.70443 8.63672 5.76953C8.48047 5.83464 8.32422 5.91276 8.16797 6.00391C8.02474 6.09505 7.90104 6.20573 7.79688 6.33594H7.44531C7.36719 6.47917 7.25651 6.58984 7.11328 6.66797C6.97005 6.73307 6.84635 6.83073 6.74219 6.96094C6.53385 7.0651 6.33854 7.19531 6.15625 7.35156C5.98698 7.49479 5.81771 7.65104 5.64844 7.82031C5.47917 7.97656 5.3099 8.13932 5.14062 8.30859C4.98438 8.47786 4.8151 8.63411 4.63281 8.77734C4.46354 9.14193 4.27474 9.46094 4.06641 9.73438C3.87109 9.99479 3.68229 10.2617 3.5 10.5352C3.33073 10.8086 3.18099 11.1081 3.05078 11.4336C2.93359 11.7461 2.875 12.1367 2.875 12.6055V12.8008C2.875 12.8659 2.88151 12.931 2.89453 12.9961C3.0638 13.1784 3.20052 13.3737 3.30469 13.582C3.42188 13.7904 3.61068 13.9401 3.87109 14.0312C4.13151 14.1354 4.40495 14.181 4.69141 14.168C4.99089 14.1549 5.27734 14.1875 5.55078 14.2656C6.17578 14.1484 6.77474 13.9596 7.34766 13.6992C7.93359 13.4258 8.48698 13.1003 9.00781 12.7227C9.08594 12.6576 9.17708 12.5924 9.28125 12.5273C9.38542 12.4492 9.47005 12.3711 9.53516 12.293C9.60026 12.2279 9.65234 12.1562 9.69141 12.0781C9.74349 12 9.79557 11.9284 9.84766 11.8633C9.95182 11.694 10.069 11.5247 10.1992 11.3555C10.3294 11.1862 10.4661 11.0299 10.6094 10.8867C10.6745 10.6003 10.7591 10.3268 10.8633 10.0664C10.9674 9.79297 11.0716 9.52604 11.1758 9.26562C11.2799 9.00521 11.3646 8.73828 11.4297 8.46484C11.5078 8.19141 11.5469 7.90495 11.5469 7.60547C11.5469 7.54036 11.5404 7.46875 11.5273 7.39062C11.5273 7.3125 11.5208 7.24089 11.5078 7.17578C11.612 7.03255 11.6641 6.8763 11.6641 6.70703Z" fill="black"/>
</svg>
